<?xml version="1.0" encoding="UTF-8" standalone="no"?>
<!DOCTYPE svg PUBLIC "-//W3C//DTD SVG 1.1//EN"
 "http://www.w3.org/Graphics/SVG/1.1/DTD/svg11.dtd">
<!-- Generated by graphviz version 2.26.3 (20100126.1600)
 -->
<!-- Title: g Pages: 1 -->
<svg width="316pt" height="262pt"
 viewBox="0.00 0.00 316.28 262.02" xmlns="http://www.w3.org/2000/svg" xmlns:xlink="http://www.w3.org/1999/xlink">
<g id="graph1" class="graph" transform="scale(1 1) rotate(0) translate(4 258.018)">
<title>g</title>
<polygon fill="white" stroke="white" points="-4,5 -4,-258.018 313.282,-258.018 313.282,5 -4,5"/>
<!-- N9 -->
<g id="node1" class="node"><title>N9</title>
<polygon fill="#ffffff" stroke="#ffffff" stroke-width="1.5" points="199.211,-1.5 233.211,-1.5 245.211,-13.5 245.211,-25.5 233.211,-37.5 199.211,-37.5 187.211,-25.5 187.211,-13.5 199.211,-1.5"/>
<path fill="#ffffff" stroke="#ffffff" stroke-width="1.5" d="M233.211,-1.5C239.211,-1.5 245.211,-7.5 245.211,-13.5"/>
<path fill="#ffffff" stroke="#ffffff" stroke-width="1.5" d="M245.211,-25.5C245.211,-31.5 239.211,-37.5 233.211,-37.5"/>
<path fill="#ffffff" stroke="#ffffff" stroke-width="1.5" d="M199.211,-37.5C193.211,-37.5 187.211,-31.5 187.211,-25.5"/>
<path fill="#ffffff" stroke="#ffffff" stroke-width="1.5" d="M187.211,-13.5C187.211,-7.5 193.211,-1.5 199.211,-1.5"/>
<polyline fill="none" stroke="#2e3436" stroke-width="1.5" points="199.211,-1.5 233.211,-1.5 "/>
<path fill="none" stroke="#2e3436" stroke-width="1.5" d="M233.211,-1.5C239.211,-1.5 245.211,-7.5 245.211,-13.5"/>
<polyline fill="none" stroke="#2e3436" stroke-width="1.5" points="245.211,-13.5 245.211,-25.5 "/>
<path fill="none" stroke="#2e3436" stroke-width="1.5" d="M245.211,-25.5C245.211,-31.5 239.211,-37.5 233.211,-37.5"/>
<polyline fill="none" stroke="#2e3436" stroke-width="1.5" points="233.211,-37.5 199.211,-37.5 "/>
<path fill="none" stroke="#2e3436" stroke-width="1.5" d="M199.211,-37.5C193.211,-37.5 187.211,-31.5 187.211,-25.5"/>
<polyline fill="none" stroke="#2e3436" stroke-width="1.5" points="187.211,-25.5 187.211,-13.5 "/>
<path fill="none" stroke="#2e3436" stroke-width="1.5" d="M187.211,-13.5C187.211,-7.5 193.211,-1.5 199.211,-1.5"/>
<text text-anchor="middle" x="216.211" y="-26.3" font-family="FreeSans" font-size="8.00" fill="#1c2021">Node[9]</text>
<polyline fill="none" stroke="#2e3436" stroke-width="1.5" points="187.211,-19.5 245.211,-19.5 "/>
<text text-anchor="start" x="195.211" y="-8.3" font-family="FreeSans" font-size="8.00" fill="#1c2021">count = 1</text>
</g>
<!-- N14 -->
<g id="node3" class="node"><title>N14</title>
<polygon fill="#ffffff" stroke="#ffffff" stroke-width="1.5" points="261.282,-109.009 295.282,-109.009 307.282,-121.009 307.282,-133.009 295.282,-145.009 261.282,-145.009 249.282,-133.009 249.282,-121.009 261.282,-109.009"/>
<path fill="#ffffff" stroke="#ffffff" stroke-width="1.5" d="M295.282,-109.009C301.282,-109.009 307.282,-115.009 307.282,-121.009"/>
<path fill="#ffffff" stroke="#ffffff" stroke-width="1.5" d="M307.282,-133.009C307.282,-139.009 301.282,-145.009 295.282,-145.009"/>
<path fill="#ffffff" stroke="#ffffff" stroke-width="1.5" d="M261.282,-145.009C255.282,-145.009 249.282,-139.009 249.282,-133.009"/>
<path fill="#ffffff" stroke="#ffffff" stroke-width="1.5" d="M249.282,-121.009C249.282,-115.009 255.282,-109.009 261.282,-109.009"/>
<polyline fill="none" stroke="#2e3436" stroke-width="1.5" points="261.282,-109.009 295.282,-109.009 "/>
<path fill="none" stroke="#2e3436" stroke-width="1.5" d="M295.282,-109.009C301.282,-109.009 307.282,-115.009 307.282,-121.009"/>
<polyline fill="none" stroke="#2e3436" stroke-width="1.5" points="307.282,-121.009 307.282,-133.009 "/>
<path fill="none" stroke="#2e3436" stroke-width="1.5" d="M307.282,-133.009C307.282,-139.009 301.282,-145.009 295.282,-145.009"/>
<polyline fill="none" stroke="#2e3436" stroke-width="1.5" points="295.282,-145.009 261.282,-145.009 "/>
<path fill="none" stroke="#2e3436" stroke-width="1.5" d="M261.282,-145.009C255.282,-145.009 249.282,-139.009 249.282,-133.009"/>
<polyline fill="none" stroke="#2e3436" stroke-width="1.5" points="249.282,-133.009 249.282,-121.009 "/>
<path fill="none" stroke="#2e3436" stroke-width="1.5" d="M249.282,-121.009C249.282,-115.009 255.282,-109.009 261.282,-109.009"/>
<text text-anchor="middle" x="278.282" y="-133.809" font-family="FreeSans" font-size="8.00" fill="#1c2021">Node[14]</text>
<polyline fill="none" stroke="#2e3436" stroke-width="1.5" points="249.282,-127.009 307.282,-127.009 "/>
<text text-anchor="start" x="257.282" y="-115.809" font-family="FreeSans" font-size="8.00" fill="#1c2021">count = 6</text>
</g>
<!-- N9&#45;&gt;N14 -->
<g id="edge2" class="edge"><title>N9&#45;&gt;N14</title>
<path fill="none" stroke="#2e3436" stroke-width="2" d="M226.741,-37.7375C236.951,-55.422 252.521,-82.3895 263.876,-102.057"/>
<polygon fill="#2e3436" stroke="#2e3436" points="267.701,-108.682 261.028,-103.875 265.393,-105.685 263.518,-102.437 263.951,-102.187 264.384,-101.937 266.259,-105.185 266.873,-100.499 267.701,-108.682 267.701,-108.682"/>
<text text-anchor="middle" x="240.308" y="-70.6973" font-family="FreeSans" font-size="8.00" fill="#2e3436">X</text>
</g>
<!-- N13 -->
<g id="node5" class="node"><title>N13</title>
<polygon fill="#ffffff" stroke="#ffffff" stroke-width="1.5" points="13,-109.009 47,-109.009 59,-121.009 59,-133.009 47,-145.009 13,-145.009 1,-133.009 1,-121.009 13,-109.009"/>
<path fill="#ffffff" stroke="#ffffff" stroke-width="1.5" d="M47,-109.009C53,-109.009 59,-115.009 59,-121.009"/>
<path fill="#ffffff" stroke="#ffffff" stroke-width="1.5" d="M59,-133.009C59,-139.009 53,-145.009 47,-145.009"/>
<path fill="#ffffff" stroke="#ffffff" stroke-width="1.5" d="M13,-145.009C7,-145.009 1,-139.009 1,-133.009"/>
<path fill="#ffffff" stroke="#ffffff" stroke-width="1.5" d="M1,-121.009C1,-115.009 7,-109.009 13,-109.009"/>
<polyline fill="none" stroke="#2e3436" stroke-width="1.5" points="13,-109.009 47,-109.009 "/>
<path fill="none" stroke="#2e3436" stroke-width="1.5" d="M47,-109.009C53,-109.009 59,-115.009 59,-121.009"/>
<polyline fill="none" stroke="#2e3436" stroke-width="1.5" points="59,-121.009 59,-133.009 "/>
<path fill="none" stroke="#2e3436" stroke-width="1.5" d="M59,-133.009C59,-139.009 53,-145.009 47,-145.009"/>
<polyline fill="none" stroke="#2e3436" stroke-width="1.5" points="47,-145.009 13,-145.009 "/>
<path fill="none" stroke="#2e3436" stroke-width="1.5" d="M13,-145.009C7,-145.009 1,-139.009 1,-133.009"/>
<polyline fill="none" stroke="#2e3436" stroke-width="1.5" points="1,-133.009 1,-121.009 "/>
<path fill="none" stroke="#2e3436" stroke-width="1.5" d="M1,-121.009C1,-115.009 7,-109.009 13,-109.009"/>
<text text-anchor="middle" x="30" y="-133.809" font-family="FreeSans" font-size="8.00" fill="#1c2021">Node[13]</text>
<polyline fill="none" stroke="#2e3436" stroke-width="1.5" points="1,-127.009 59,-127.009 "/>
<text text-anchor="start" x="9" y="-115.809" font-family="FreeSans" font-size="8.00" fill="#1c2021">count = 5</text>
</g>
<!-- N9&#45;&gt;N13 -->
<g id="edge4" class="edge"><title>N9&#45;&gt;N13</title>
<path fill="none" stroke="#2e3436" stroke-width="2" d="M187.116,-36.2983C154.415,-55.1779 101.297,-85.8458 66.0068,-106.221"/>
<polygon fill="#2e3436" stroke="#2e3436" points="59.1979,-110.152 64.0056,-103.479 62.1955,-107.844 65.4431,-105.969 65.6931,-106.402 65.9431,-106.835 62.6955,-108.71 67.3806,-109.325 59.1979,-110.152 59.1979,-110.152"/>
<text text-anchor="middle" x="129.561" y="-75.0594" font-family="FreeSans" font-size="8.00" fill="#2e3436">X</text>
</g>
<!-- N12 -->
<g id="node7" class="node"><title>N12</title>
<polygon fill="#ffffff" stroke="#ffffff" stroke-width="1.5" points="75.0704,-216.518 109.07,-216.518 121.07,-228.518 121.07,-240.518 109.07,-252.518 75.0704,-252.518 63.0704,-240.518 63.0704,-228.518 75.0704,-216.518"/>
<path fill="#ffffff" stroke="#ffffff" stroke-width="1.5" d="M109.07,-216.518C115.07,-216.518 121.07,-222.518 121.07,-228.518"/>
<path fill="#ffffff" stroke="#ffffff" stroke-width="1.5" d="M121.07,-240.518C121.07,-246.518 115.07,-252.518 109.07,-252.518"/>
<path fill="#ffffff" stroke="#ffffff" stroke-width="1.5" d="M75.0704,-252.518C69.0704,-252.518 63.0704,-246.518 63.0704,-240.518"/>
<path fill="#ffffff" stroke="#ffffff" stroke-width="1.5" d="M63.0704,-228.518C63.0704,-222.518 69.0704,-216.518 75.0704,-216.518"/>
<polyline fill="none" stroke="#2e3436" stroke-width="1.5" points="75.0704,-216.518 109.07,-216.518 "/>
<path fill="none" stroke="#2e3436" stroke-width="1.5" d="M109.07,-216.518C115.07,-216.518 121.07,-222.518 121.07,-228.518"/>
<polyline fill="none" stroke="#2e3436" stroke-width="1.5" points="121.07,-228.518 121.07,-240.518 "/>
<path fill="none" stroke="#2e3436" stroke-width="1.5" d="M121.07,-240.518C121.07,-246.518 115.07,-252.518 109.07,-252.518"/>
<polyline fill="none" stroke="#2e3436" stroke-width="1.5" points="109.07,-252.518 75.0704,-252.518 "/>
<path fill="none" stroke="#2e3436" stroke-width="1.5" d="M75.0704,-252.518C69.0704,-252.518 63.0704,-246.518 63.0704,-240.518"/>
<polyline fill="none" stroke="#2e3436" stroke-width="1.5" points="63.0704,-240.518 63.0704,-228.518 "/>
<path fill="none" stroke="#2e3436" stroke-width="1.5" d="M63.0704,-228.518C63.0704,-222.518 69.0704,-216.518 75.0704,-216.518"/>
<text text-anchor="middle" x="92.0704" y="-241.318" font-family="FreeSans" font-size="8.00" fill="#1c2021">Node[12]</text>
<polyline fill="none" stroke="#2e3436" stroke-width="1.5" points="63.0704,-234.518 121.07,-234.518 "/>
<text text-anchor="start" x="71.0704" y="-223.318" font-family="FreeSans" font-size="8.00" fill="#1c2021">count = 4</text>
</g>
<!-- N9&#45;&gt;N12 -->
<g id="edge6" class="edge"><title>N9&#45;&gt;N12</title>
<path fill="none" stroke="#2e3436" stroke-width="2" d="M205.627,-37.8323C183.364,-76.3924 131.672,-165.927 106.441,-209.627"/>
<polygon fill="#2e3436" stroke="#2e3436" points="102.628,-216.232 103.455,-208.05 104.07,-212.735 105.945,-209.487 106.378,-209.737 106.811,-209.987 104.936,-213.235 109.301,-211.425 102.628,-216.232 102.628,-216.232"/>
<text text-anchor="middle" x="161.034" y="-124.53" font-family="FreeSans" font-size="8.00" fill="#2e3436">X</text>
</g>
<!-- N11 -->
<g id="node9" class="node"><title>N11</title>
<polygon fill="#ffffff" stroke="#ffffff" stroke-width="1.5" points="199.211,-216.518 233.211,-216.518 245.211,-228.518 245.211,-240.518 233.211,-252.518 199.211,-252.518 187.211,-240.518 187.211,-228.518 199.211,-216.518"/>
<path fill="#ffffff" stroke="#ffffff" stroke-width="1.5" d="M233.211,-216.518C239.211,-216.518 245.211,-222.518 245.211,-228.518"/>
<path fill="#ffffff" stroke="#ffffff" stroke-width="1.5" d="M245.211,-240.518C245.211,-246.518 239.211,-252.518 233.211,-252.518"/>
<path fill="#ffffff" stroke="#ffffff" stroke-width="1.5" d="M199.211,-252.518C193.211,-252.518 187.211,-246.518 187.211,-240.518"/>
<path fill="#ffffff" stroke="#ffffff" stroke-width="1.5" d="M187.211,-228.518C187.211,-222.518 193.211,-216.518 199.211,-216.518"/>
<polyline fill="none" stroke="#2e3436" stroke-width="1.5" points="199.211,-216.518 233.211,-216.518 "/>
<path fill="none" stroke="#2e3436" stroke-width="1.5" d="M233.211,-216.518C239.211,-216.518 245.211,-222.518 245.211,-228.518"/>
<polyline fill="none" stroke="#2e3436" stroke-width="1.5" points="245.211,-228.518 245.211,-240.518 "/>
<path fill="none" stroke="#2e3436" stroke-width="1.5" d="M245.211,-240.518C245.211,-246.518 239.211,-252.518 233.211,-252.518"/>
<polyline fill="none" stroke="#2e3436" stroke-width="1.5" points="233.211,-252.518 199.211,-252.518 "/>
<path fill="none" stroke="#2e3436" stroke-width="1.5" d="M199.211,-252.518C193.211,-252.518 187.211,-246.518 187.211,-240.518"/>
<polyline fill="none" stroke="#2e3436" stroke-width="1.5" points="187.211,-240.518 187.211,-228.518 "/>
<path fill="none" stroke="#2e3436" stroke-width="1.5" d="M187.211,-228.518C187.211,-222.518 193.211,-216.518 199.211,-216.518"/>
<text text-anchor="middle" x="216.211" y="-241.318" font-family="FreeSans" font-size="8.00" fill="#1c2021">Node[11]</text>
<polyline fill="none" stroke="#2e3436" stroke-width="1.5" points="187.211,-234.518 245.211,-234.518 "/>
<text text-anchor="start" x="195.211" y="-223.318" font-family="FreeSans" font-size="8.00" fill="#1c2021">count = 3</text>
</g>
<!-- N9&#45;&gt;N11 -->
<g id="edge8" class="edge"><title>N9&#45;&gt;N11</title>
<path fill="none" stroke="#2e3436" stroke-width="2" d="M216.211,-37.8323C216.211,-76.0751 216.211,-164.456 216.211,-208.539"/>
<polygon fill="#2e3436" stroke="#2e3436" points="216.211,-216.232 212.836,-208.732 215.711,-212.482 215.711,-208.732 216.211,-208.732 216.711,-208.732 216.711,-212.482 219.586,-208.732 216.211,-216.232 216.211,-216.232"/>
<text text-anchor="middle" x="220.211" y="-120.986" font-family="FreeSans" font-size="8.00" fill="#2e3436">X</text>
</g>
<!-- N10 -->
<g id="node11" class="node"><title>N10</title>
<polygon fill="#ffffff" stroke="#ffffff" stroke-width="1.5" points="75.0704,-1.5 109.07,-1.5 121.07,-13.5 121.07,-25.5 109.07,-37.5 75.0704,-37.5 63.0704,-25.5 63.0704,-13.5 75.0704,-1.5"/>
<path fill="#ffffff" stroke="#ffffff" stroke-width="1.5" d="M109.07,-1.5C115.07,-1.5 121.07,-7.5 121.07,-13.5"/>
<path fill="#ffffff" stroke="#ffffff" stroke-width="1.5" d="M121.07,-25.5C121.07,-31.5 115.07,-37.5 109.07,-37.5"/>
<path fill="#ffffff" stroke="#ffffff" stroke-width="1.5" d="M75.0704,-37.5C69.0704,-37.5 63.0704,-31.5 63.0704,-25.5"/>
<path fill="#ffffff" stroke="#ffffff" stroke-width="1.5" d="M63.0704,-13.5C63.0704,-7.5 69.0704,-1.5 75.0704,-1.5"/>
<polyline fill="none" stroke="#2e3436" stroke-width="1.5" points="75.0704,-1.5 109.07,-1.5 "/>
<path fill="none" stroke="#2e3436" stroke-width="1.5" d="M109.07,-1.5C115.07,-1.5 121.07,-7.5 121.07,-13.5"/>
<polyline fill="none" stroke="#2e3436" stroke-width="1.5" points="121.07,-13.5 121.07,-25.5 "/>
<path fill="none" stroke="#2e3436" stroke-width="1.5" d="M121.07,-25.5C121.07,-31.5 115.07,-37.5 109.07,-37.5"/>
<polyline fill="none" stroke="#2e3436" stroke-width="1.5" points="109.07,-37.5 75.0704,-37.5 "/>
<path fill="none" stroke="#2e3436" stroke-width="1.5" d="M75.0704,-37.5C69.0704,-37.5 63.0704,-31.5 63.0704,-25.5"/>
<polyline fill="none" stroke="#2e3436" stroke-width="1.5" points="63.0704,-25.5 63.0704,-13.5 "/>
<path fill="none" stroke="#2e3436" stroke-width="1.5" d="M63.0704,-13.5C63.0704,-7.5 69.0704,-1.5 75.0704,-1.5"/>
<text text-anchor="middle" x="92.0704" y="-26.3" font-family="FreeSans" font-size="8.00" fill="#1c2021">Node[10]</text>
<polyline fill="none" stroke="#2e3436" stroke-width="1.5" points="63.0704,-19.5 121.07,-19.5 "/>
<text text-anchor="start" x="71.0704" y="-8.3" font-family="FreeSans" font-size="8.00" fill="#1c2021">count = 2</text>
</g>
<!-- N9&#45;&gt;N10 -->
<g id="edge10" class="edge"><title>N9&#45;&gt;N10</title>
<path fill="none" stroke="#2e3436" stroke-width="2" d="M187.106,-19.5C169.799,-19.5 147.675,-19.5 129.129,-19.5"/>
<polygon fill="#2e3436" stroke="#2e3436" points="121.424,-19.5 128.924,-16.1249 125.174,-19 128.924,-18.9999 128.924,-19.4999 128.924,-19.9999 125.174,-20 128.924,-22.8749 121.424,-19.5 121.424,-19.5"/>
<text text-anchor="middle" x="158.117" y="-11.3" font-family="FreeSans" font-size="8.00" fill="#2e3436">X</text>
</g>
<!-- N13&#45;&gt;N14 -->
<g id="edge30" class="edge"><title>N13&#45;&gt;N14</title>
<path fill="none" stroke="#2e3436" stroke-width="2" d="M59.4562,-127.009C104.936,-127.009 192.158,-127.009 241.642,-127.009"/>
<polygon fill="#2e3436" stroke="#2e3436" points="249.248,-127.009 241.748,-130.384 245.498,-127.509 241.748,-127.509 241.748,-127.009 241.748,-126.509 245.498,-126.509 241.748,-123.634 249.248,-127.009 249.248,-127.009"/>
<text text-anchor="middle" x="150.549" y="-130.809" font-family="FreeSans" font-size="8.00" fill="#2e3436">X</text>
</g>
<!-- N12&#45;&gt;N14 -->
<g id="edge26" class="edge"><title>N12&#45;&gt;N14</title>
<path fill="none" stroke="#2e3436" stroke-width="2" d="M121.166,-217.72C153.866,-198.84 206.985,-168.172 242.275,-147.798"/>
<polygon fill="#2e3436" stroke="#2e3436" points="249.084,-143.867 244.276,-150.539 246.086,-146.175 242.839,-148.05 242.589,-147.617 242.339,-147.184 245.586,-145.309 240.901,-144.694 249.084,-143.867 249.084,-143.867"/>
<text text-anchor="middle" x="178.72" y="-174.559" font-family="FreeSans" font-size="8.00" fill="#2e3436">X</text>
</g>
<!-- N12&#45;&gt;N13 -->
<g id="edge28" class="edge"><title>N12&#45;&gt;N13</title>
<path fill="none" stroke="#2e3436" stroke-width="2" d="M81.541,-216.281C71.3309,-198.596 55.7612,-171.629 44.406,-151.961"/>
<polygon fill="#2e3436" stroke="#2e3436" points="40.5811,-145.336 47.2539,-150.144 42.8891,-148.334 44.7641,-151.581 44.3311,-151.831 43.8981,-152.081 42.0231,-148.834 41.4083,-153.519 40.5811,-145.336 40.5811,-145.336"/>
<text text-anchor="middle" x="67.9735" y="-178.921" font-family="FreeSans" font-size="8.00" fill="#2e3436">X</text>
</g>
<!-- N11&#45;&gt;N14 -->
<g id="edge20" class="edge"><title>N11&#45;&gt;N14</title>
<path fill="none" stroke="#2e3436" stroke-width="2" d="M226.741,-216.281C236.951,-198.596 252.521,-171.629 263.876,-151.961"/>
<polygon fill="#2e3436" stroke="#2e3436" points="267.701,-145.336 266.873,-153.519 266.259,-148.834 264.384,-152.081 263.951,-151.831 263.518,-151.581 265.393,-148.334 261.028,-150.144 267.701,-145.336 267.701,-145.336"/>
<text text-anchor="middle" x="250.308" y="-184.921" font-family="FreeSans" font-size="8.00" fill="#2e3436">X</text>
</g>
<!-- N11&#45;&gt;N13 -->
<g id="edge22" class="edge"><title>N11&#45;&gt;N13</title>
<path fill="none" stroke="#2e3436" stroke-width="2" d="M187.116,-217.72C154.415,-198.84 101.297,-168.172 66.0068,-147.798"/>
<polygon fill="#2e3436" stroke="#2e3436" points="59.1979,-143.867 67.3806,-144.694 62.6955,-145.309 65.9431,-147.184 65.6931,-147.617 65.4431,-148.05 62.1955,-146.175 64.0056,-150.539 59.1979,-143.867 59.1979,-143.867"/>
<text text-anchor="middle" x="123.561" y="-186.559" font-family="FreeSans" font-size="8.00" fill="#2e3436">X</text>
</g>
<!-- N11&#45;&gt;N12 -->
<g id="edge24" class="edge"><title>N11&#45;&gt;N12</title>
<path fill="none" stroke="#2e3436" stroke-width="2" d="M187.106,-234.518C169.799,-234.518 147.675,-234.518 129.129,-234.518"/>
<polygon fill="#2e3436" stroke="#2e3436" points="121.424,-234.518 128.924,-231.143 125.174,-234.018 128.924,-234.018 128.924,-234.518 128.924,-235.018 125.174,-235.018 128.924,-237.893 121.424,-234.518 121.424,-234.518"/>
<text text-anchor="middle" x="158.117" y="-226.318" font-family="FreeSans" font-size="8.00" fill="#2e3436">X</text>
</g>
<!-- N10&#45;&gt;N14 -->
<g id="edge12" class="edge"><title>N10&#45;&gt;N14</title>
<path fill="none" stroke="#2e3436" stroke-width="2" d="M121.166,-36.2983C153.866,-55.1779 206.985,-85.8458 242.275,-106.221"/>
<polygon fill="#2e3436" stroke="#2e3436" points="249.084,-110.152 240.901,-109.325 245.586,-108.71 242.339,-106.835 242.589,-106.402 242.839,-105.969 246.086,-107.844 244.276,-103.479 249.084,-110.152 249.084,-110.152"/>
<text text-anchor="middle" x="178.72" y="-75.0594" font-family="FreeSans" font-size="8.00" fill="#2e3436">X</text>
</g>
<!-- N10&#45;&gt;N13 -->
<g id="edge14" class="edge"><title>N10&#45;&gt;N13</title>
<path fill="none" stroke="#2e3436" stroke-width="2" d="M81.541,-37.7375C71.3309,-55.422 55.7612,-82.3895 44.406,-102.057"/>
<polygon fill="#2e3436" stroke="#2e3436" points="40.5811,-108.682 41.4083,-100.499 42.0231,-105.185 43.8981,-101.937 44.3311,-102.187 44.7641,-102.437 42.8891,-105.685 47.2539,-103.875 40.5811,-108.682 40.5811,-108.682"/>
<text text-anchor="middle" x="67.9735" y="-70.6973" font-family="FreeSans" font-size="8.00" fill="#2e3436">X</text>
</g>
<!-- N10&#45;&gt;N12 -->
<g id="edge16" class="edge"><title>N10&#45;&gt;N12</title>
<path fill="none" stroke="#2e3436" stroke-width="2" d="M92.0704,-37.8323C92.0704,-76.0751 92.0704,-164.456 92.0704,-208.539"/>
<polygon fill="#2e3436" stroke="#2e3436" points="92.0704,-216.232 88.6955,-208.732 91.5705,-212.482 91.5705,-208.732 92.0705,-208.732 92.5705,-208.732 92.5705,-212.482 95.4455,-208.732 92.0704,-216.232 92.0704,-216.232"/>
<text text-anchor="middle" x="96.0704" y="-120.986" font-family="FreeSans" font-size="8.00" fill="#2e3436">X</text>
</g>
<!-- N10&#45;&gt;N11 -->
<g id="edge18" class="edge"><title>N10&#45;&gt;N11</title>
<path fill="none" stroke="#2e3436" stroke-width="2" d="M102.655,-37.8323C124.917,-76.3924 176.61,-165.927 201.84,-209.627"/>
<polygon fill="#2e3436" stroke="#2e3436" points="205.654,-216.232 198.981,-211.425 203.346,-213.235 201.471,-209.987 201.904,-209.737 202.337,-209.487 204.212,-212.735 204.827,-208.05 205.654,-216.232 205.654,-216.232"/>
<text text-anchor="middle" x="157.247" y="-118.53" font-family="FreeSans" font-size="8.00" fill="#2e3436">X</text>
</g>
</g>
</svg>
