<?xml version="1.0" encoding="UTF-8" standalone="no"?>
<!DOCTYPE svg PUBLIC "-//W3C//DTD SVG 1.1//EN"
 "http://www.w3.org/Graphics/SVG/1.1/DTD/svg11.dtd">
<!-- Generated by graphviz version 2.26.3 (20100126.1600)
 -->
<!-- Title: g Pages: 1 -->
<svg width="209pt" height="212pt"
 viewBox="0.00 0.00 208.76 212.07" xmlns="http://www.w3.org/2000/svg" xmlns:xlink="http://www.w3.org/1999/xlink">
<g id="graph1" class="graph" transform="scale(1 1) rotate(0) translate(4 208.068)">
<title>g</title>
<polygon fill="white" stroke="white" points="-4,5 -4,-208.068 205.76,-208.068 205.76,5 -4,5"/>
<!-- N8 -->
<g id="node1" class="node"><title>N8</title>
<polygon fill="#ffffff" stroke="#ffffff" stroke-width="1.5" points="85.2827,-84.0135 115.283,-84.0135 127.283,-96.0135 127.283,-108.014 115.283,-120.014 85.2827,-120.014 73.2827,-108.014 73.2827,-96.0135 85.2827,-84.0135"/>
<path fill="#ffffff" stroke="#ffffff" stroke-width="1.5" d="M115.283,-84.0135C121.283,-84.0135 127.283,-90.0135 127.283,-96.0135"/>
<path fill="#ffffff" stroke="#ffffff" stroke-width="1.5" d="M127.283,-108.014C127.283,-114.014 121.283,-120.014 115.283,-120.014"/>
<path fill="#ffffff" stroke="#ffffff" stroke-width="1.5" d="M85.2827,-120.014C79.2827,-120.014 73.2827,-114.014 73.2827,-108.014"/>
<path fill="#ffffff" stroke="#ffffff" stroke-width="1.5" d="M73.2827,-96.0135C73.2827,-90.0135 79.2827,-84.0135 85.2827,-84.0135"/>
<polyline fill="none" stroke="#2e3436" stroke-width="1.5" points="85.2827,-84.0135 115.283,-84.0135 "/>
<path fill="none" stroke="#2e3436" stroke-width="1.5" d="M115.283,-84.0135C121.283,-84.0135 127.283,-90.0135 127.283,-96.0135"/>
<polyline fill="none" stroke="#2e3436" stroke-width="1.5" points="127.283,-96.0135 127.283,-108.014 "/>
<path fill="none" stroke="#2e3436" stroke-width="1.5" d="M127.283,-108.014C127.283,-114.014 121.283,-120.014 115.283,-120.014"/>
<polyline fill="none" stroke="#2e3436" stroke-width="1.5" points="115.283,-120.014 85.2827,-120.014 "/>
<path fill="none" stroke="#2e3436" stroke-width="1.5" d="M85.2827,-120.014C79.2827,-120.014 73.2827,-114.014 73.2827,-108.014"/>
<polyline fill="none" stroke="#2e3436" stroke-width="1.5" points="73.2827,-108.014 73.2827,-96.0135 "/>
<path fill="none" stroke="#2e3436" stroke-width="1.5" d="M73.2827,-96.0135C73.2827,-90.0135 79.2827,-84.0135 85.2827,-84.0135"/>
<text text-anchor="middle" x="100.283" y="-108.814" font-family="FreeSans" font-size="8.00" fill="#1c2021">Node[8]</text>
<polyline fill="none" stroke="#2e3436" stroke-width="1.5" points="73.2827,-102.014 127.283,-102.014 "/>
<text text-anchor="middle" x="100.283" y="-90.8135" font-family="FreeSans" font-size="8.00" fill="#1c2021"> </text>
</g>
<!-- N9 -->
<g id="node3" class="node"><title>N9</title>
<polygon fill="#ffffff" stroke="#ffffff" stroke-width="1.5" points="156.676,-42.5082 186.676,-42.5082 198.676,-54.5082 198.676,-66.5082 186.676,-78.5082 156.676,-78.5082 144.676,-66.5082 144.676,-54.5082 156.676,-42.5082"/>
<path fill="#ffffff" stroke="#ffffff" stroke-width="1.5" d="M186.676,-42.5082C192.676,-42.5082 198.676,-48.5082 198.676,-54.5082"/>
<path fill="#ffffff" stroke="#ffffff" stroke-width="1.5" d="M198.676,-66.5082C198.676,-72.5082 192.676,-78.5082 186.676,-78.5082"/>
<path fill="#ffffff" stroke="#ffffff" stroke-width="1.5" d="M156.676,-78.5082C150.676,-78.5082 144.676,-72.5082 144.676,-66.5082"/>
<path fill="#ffffff" stroke="#ffffff" stroke-width="1.5" d="M144.676,-54.5082C144.676,-48.5082 150.676,-42.5082 156.676,-42.5082"/>
<polyline fill="none" stroke="#2e3436" stroke-width="1.5" points="156.676,-42.5082 186.676,-42.5082 "/>
<path fill="none" stroke="#2e3436" stroke-width="1.5" d="M186.676,-42.5082C192.676,-42.5082 198.676,-48.5082 198.676,-54.5082"/>
<polyline fill="none" stroke="#2e3436" stroke-width="1.5" points="198.676,-54.5082 198.676,-66.5082 "/>
<path fill="none" stroke="#2e3436" stroke-width="1.5" d="M198.676,-66.5082C198.676,-72.5082 192.676,-78.5082 186.676,-78.5082"/>
<polyline fill="none" stroke="#2e3436" stroke-width="1.5" points="186.676,-78.5082 156.676,-78.5082 "/>
<path fill="none" stroke="#2e3436" stroke-width="1.5" d="M156.676,-78.5082C150.676,-78.5082 144.676,-72.5082 144.676,-66.5082"/>
<polyline fill="none" stroke="#2e3436" stroke-width="1.5" points="144.676,-66.5082 144.676,-54.5082 "/>
<path fill="none" stroke="#2e3436" stroke-width="1.5" d="M144.676,-54.5082C144.676,-48.5082 150.676,-42.5082 156.676,-42.5082"/>
<text text-anchor="middle" x="171.676" y="-67.3082" font-family="FreeSans" font-size="8.00" fill="#1c2021">Node[9]</text>
<polyline fill="none" stroke="#2e3436" stroke-width="1.5" points="144.676,-60.5082 198.676,-60.5082 "/>
<text text-anchor="middle" x="171.676" y="-49.3082" font-family="FreeSans" font-size="8.00" fill="#1c2021"> </text>
</g>
<!-- N8&#45;&gt;N9 -->
<g id="edge2" class="edge"><title>N8&#45;&gt;N9</title>
<path fill="none" stroke="#2e3436" stroke-width="2" d="M127.681,-86.0852C131.036,-84.1349 134.494,-82.1244 137.928,-80.1279"/>
<polygon fill="#2e3436" stroke="#2e3436" points="144.469,-76.3254 139.681,-83.0127 141.478,-78.6424 138.237,-80.5272 137.985,-80.0949 137.734,-79.6626 140.976,-77.7779 136.289,-77.1771 144.469,-76.3254 144.469,-76.3254"/>
<text text-anchor="middle" x="129.805" y="-74.9065" font-family="FreeSans" font-size="8.00" fill="#2e3436">X</text>
</g>
<!-- N10 -->
<g id="node5" class="node"><title>N10</title>
<polygon fill="#ffffff" stroke="#ffffff" stroke-width="1.5" points="84.6173,-1.5 115.617,-1.5 127.617,-13.5 127.617,-25.5 115.617,-37.5 84.6173,-37.5 72.6173,-25.5 72.6173,-13.5 84.6173,-1.5"/>
<path fill="#ffffff" stroke="#ffffff" stroke-width="1.5" d="M115.617,-1.5C121.617,-1.5 127.617,-7.5 127.617,-13.5"/>
<path fill="#ffffff" stroke="#ffffff" stroke-width="1.5" d="M127.617,-25.5C127.617,-31.5 121.617,-37.5 115.617,-37.5"/>
<path fill="#ffffff" stroke="#ffffff" stroke-width="1.5" d="M84.6173,-37.5C78.6173,-37.5 72.6173,-31.5 72.6173,-25.5"/>
<path fill="#ffffff" stroke="#ffffff" stroke-width="1.5" d="M72.6173,-13.5C72.6173,-7.5 78.6173,-1.5 84.6173,-1.5"/>
<polyline fill="none" stroke="#2e3436" stroke-width="1.5" points="84.6173,-1.5 115.617,-1.5 "/>
<path fill="none" stroke="#2e3436" stroke-width="1.5" d="M115.617,-1.5C121.617,-1.5 127.617,-7.5 127.617,-13.5"/>
<polyline fill="none" stroke="#2e3436" stroke-width="1.5" points="127.617,-13.5 127.617,-25.5 "/>
<path fill="none" stroke="#2e3436" stroke-width="1.5" d="M127.617,-25.5C127.617,-31.5 121.617,-37.5 115.617,-37.5"/>
<polyline fill="none" stroke="#2e3436" stroke-width="1.5" points="115.617,-37.5 84.6173,-37.5 "/>
<path fill="none" stroke="#2e3436" stroke-width="1.5" d="M84.6173,-37.5C78.6173,-37.5 72.6173,-31.5 72.6173,-25.5"/>
<polyline fill="none" stroke="#2e3436" stroke-width="1.5" points="72.6173,-25.5 72.6173,-13.5 "/>
<path fill="none" stroke="#2e3436" stroke-width="1.5" d="M72.6173,-13.5C72.6173,-7.5 78.6173,-1.5 84.6173,-1.5"/>
<text text-anchor="middle" x="100.117" y="-26.3" font-family="FreeSans" font-size="8.00" fill="#1c2021">Node[10]</text>
<polyline fill="none" stroke="#2e3436" stroke-width="1.5" points="72.6173,-19.5 127.617,-19.5 "/>
<text text-anchor="middle" x="100.117" y="-8.3" font-family="FreeSans" font-size="8.00" fill="#1c2021"> </text>
</g>
<!-- N8&#45;&gt;N10 -->
<g id="edge4" class="edge"><title>N8&#45;&gt;N10</title>
<path fill="none" stroke="#2e3436" stroke-width="2" d="M100.246,-83.7011C100.224,-72.4842 100.194,-57.9496 100.17,-45.5472"/>
<polygon fill="#2e3436" stroke="#2e3436" points="100.154,-37.7612 103.544,-45.2544 100.661,-41.5102 100.669,-45.2602 100.169,-45.2612 99.669,-45.2622 99.6615,-41.5122 96.794,-45.268 100.154,-37.7612 100.154,-37.7612"/>
<text text-anchor="middle" x="104.208" y="-62.4241" font-family="FreeSans" font-size="8.00" fill="#2e3436">X</text>
</g>
<!-- N11 -->
<g id="node7" class="node"><title>N11</title>
<polygon fill="#ffffff" stroke="#ffffff" stroke-width="1.5" points="14.0364,-126.462 45.0364,-126.462 57.0364,-138.462 57.0364,-150.462 45.0364,-162.462 14.0364,-162.462 2.03641,-150.462 2.03641,-138.462 14.0364,-126.462"/>
<path fill="#ffffff" stroke="#ffffff" stroke-width="1.5" d="M45.0364,-126.462C51.0364,-126.462 57.0364,-132.462 57.0364,-138.462"/>
<path fill="#ffffff" stroke="#ffffff" stroke-width="1.5" d="M57.0364,-150.462C57.0364,-156.462 51.0364,-162.462 45.0364,-162.462"/>
<path fill="#ffffff" stroke="#ffffff" stroke-width="1.5" d="M14.0364,-162.462C8.03641,-162.462 2.03641,-156.462 2.03641,-150.462"/>
<path fill="#ffffff" stroke="#ffffff" stroke-width="1.5" d="M2.03641,-138.462C2.03641,-132.462 8.03641,-126.462 14.0364,-126.462"/>
<polyline fill="none" stroke="#2e3436" stroke-width="1.5" points="14.0364,-126.462 45.0364,-126.462 "/>
<path fill="none" stroke="#2e3436" stroke-width="1.5" d="M45.0364,-126.462C51.0364,-126.462 57.0364,-132.462 57.0364,-138.462"/>
<polyline fill="none" stroke="#2e3436" stroke-width="1.5" points="57.0364,-138.462 57.0364,-150.462 "/>
<path fill="none" stroke="#2e3436" stroke-width="1.5" d="M57.0364,-150.462C57.0364,-156.462 51.0364,-162.462 45.0364,-162.462"/>
<polyline fill="none" stroke="#2e3436" stroke-width="1.5" points="45.0364,-162.462 14.0364,-162.462 "/>
<path fill="none" stroke="#2e3436" stroke-width="1.5" d="M14.0364,-162.462C8.03641,-162.462 2.03641,-156.462 2.03641,-150.462"/>
<polyline fill="none" stroke="#2e3436" stroke-width="1.5" points="2.03641,-150.462 2.03641,-138.462 "/>
<path fill="none" stroke="#2e3436" stroke-width="1.5" d="M2.03641,-138.462C2.03641,-132.462 8.03641,-126.462 14.0364,-126.462"/>
<text text-anchor="middle" x="29.5364" y="-151.262" font-family="FreeSans" font-size="8.00" fill="#1c2021">Node[11]</text>
<polyline fill="none" stroke="#2e3436" stroke-width="1.5" points="2.03641,-144.462 57.0364,-144.462 "/>
<text text-anchor="middle" x="29.5364" y="-133.262" font-family="FreeSans" font-size="8.00" fill="#1c2021"> </text>
</g>
<!-- N8&#45;&gt;N11 -->
<g id="edge6" class="edge"><title>N8&#45;&gt;N11</title>
<path fill="none" stroke="#2e3436" stroke-width="2" d="M73.1327,-118.304C70.2394,-120.04 67.2685,-121.822 64.3032,-123.601"/>
<polygon fill="#2e3436" stroke="#2e3436" points="57.4338,-127.723 62.1285,-120.97 60.3921,-125.365 63.6077,-123.436 63.865,-123.864 64.1222,-124.293 60.9066,-126.222 65.6014,-126.758 57.4338,-127.723 57.4338,-127.723"/>
<text text-anchor="middle" x="71.7179" y="-124.752" font-family="FreeSans" font-size="8.00" fill="#2e3436">X</text>
</g>
<!-- N12 -->
<g id="node9" class="node"><title>N12</title>
<polygon fill="#ffffff" stroke="#ffffff" stroke-width="1.5" points="156.76,-124.55 187.76,-124.55 199.76,-136.55 199.76,-148.55 187.76,-160.55 156.76,-160.55 144.76,-148.55 144.76,-136.55 156.76,-124.55"/>
<path fill="#ffffff" stroke="#ffffff" stroke-width="1.5" d="M187.76,-124.55C193.76,-124.55 199.76,-130.55 199.76,-136.55"/>
<path fill="#ffffff" stroke="#ffffff" stroke-width="1.5" d="M199.76,-148.55C199.76,-154.55 193.76,-160.55 187.76,-160.55"/>
<path fill="#ffffff" stroke="#ffffff" stroke-width="1.5" d="M156.76,-160.55C150.76,-160.55 144.76,-154.55 144.76,-148.55"/>
<path fill="#ffffff" stroke="#ffffff" stroke-width="1.5" d="M144.76,-136.55C144.76,-130.55 150.76,-124.55 156.76,-124.55"/>
<polyline fill="none" stroke="#2e3436" stroke-width="1.5" points="156.76,-124.55 187.76,-124.55 "/>
<path fill="none" stroke="#2e3436" stroke-width="1.5" d="M187.76,-124.55C193.76,-124.55 199.76,-130.55 199.76,-136.55"/>
<polyline fill="none" stroke="#2e3436" stroke-width="1.5" points="199.76,-136.55 199.76,-148.55 "/>
<path fill="none" stroke="#2e3436" stroke-width="1.5" d="M199.76,-148.55C199.76,-154.55 193.76,-160.55 187.76,-160.55"/>
<polyline fill="none" stroke="#2e3436" stroke-width="1.5" points="187.76,-160.55 156.76,-160.55 "/>
<path fill="none" stroke="#2e3436" stroke-width="1.5" d="M156.76,-160.55C150.76,-160.55 144.76,-154.55 144.76,-148.55"/>
<polyline fill="none" stroke="#2e3436" stroke-width="1.5" points="144.76,-148.55 144.76,-136.55 "/>
<path fill="none" stroke="#2e3436" stroke-width="1.5" d="M144.76,-136.55C144.76,-130.55 150.76,-124.55 156.76,-124.55"/>
<text text-anchor="middle" x="172.26" y="-149.35" font-family="FreeSans" font-size="8.00" fill="#1c2021">Node[12]</text>
<polyline fill="none" stroke="#2e3436" stroke-width="1.5" points="144.76,-142.55 199.76,-142.55 "/>
<text text-anchor="middle" x="172.26" y="-131.35" font-family="FreeSans" font-size="8.00" fill="#1c2021"> </text>
</g>
<!-- N8&#45;&gt;N12 -->
<g id="edge8" class="edge"><title>N8&#45;&gt;N12</title>
<path fill="none" stroke="#2e3436" stroke-width="2" d="M127.494,-117.339C130.891,-119.251 134.398,-121.227 137.885,-123.19"/>
<polygon fill="#2e3436" stroke="#2e3436" points="144.532,-126.934 136.341,-126.194 141.019,-125.529 137.751,-123.689 137.997,-123.253 138.242,-122.818 141.51,-124.658 139.653,-120.313 144.532,-126.934 144.532,-126.934"/>
<text text-anchor="middle" x="135.69" y="-112.065" font-family="FreeSans" font-size="8.00" fill="#2e3436">X</text>
</g>
<!-- N13 -->
<g id="node11" class="node"><title>N13</title>
<polygon fill="#ffffff" stroke="#ffffff" stroke-width="1.5" points="86.2197,-166.568 117.22,-166.568 129.22,-178.568 129.22,-190.568 117.22,-202.568 86.2197,-202.568 74.2197,-190.568 74.2197,-178.568 86.2197,-166.568"/>
<path fill="#ffffff" stroke="#ffffff" stroke-width="1.5" d="M117.22,-166.568C123.22,-166.568 129.22,-172.568 129.22,-178.568"/>
<path fill="#ffffff" stroke="#ffffff" stroke-width="1.5" d="M129.22,-190.568C129.22,-196.568 123.22,-202.568 117.22,-202.568"/>
<path fill="#ffffff" stroke="#ffffff" stroke-width="1.5" d="M86.2197,-202.568C80.2197,-202.568 74.2197,-196.568 74.2197,-190.568"/>
<path fill="#ffffff" stroke="#ffffff" stroke-width="1.5" d="M74.2197,-178.568C74.2197,-172.568 80.2197,-166.568 86.2197,-166.568"/>
<polyline fill="none" stroke="#2e3436" stroke-width="1.5" points="86.2197,-166.568 117.22,-166.568 "/>
<path fill="none" stroke="#2e3436" stroke-width="1.5" d="M117.22,-166.568C123.22,-166.568 129.22,-172.568 129.22,-178.568"/>
<polyline fill="none" stroke="#2e3436" stroke-width="1.5" points="129.22,-178.568 129.22,-190.568 "/>
<path fill="none" stroke="#2e3436" stroke-width="1.5" d="M129.22,-190.568C129.22,-196.568 123.22,-202.568 117.22,-202.568"/>
<polyline fill="none" stroke="#2e3436" stroke-width="1.5" points="117.22,-202.568 86.2197,-202.568 "/>
<path fill="none" stroke="#2e3436" stroke-width="1.5" d="M86.2197,-202.568C80.2197,-202.568 74.2197,-196.568 74.2197,-190.568"/>
<polyline fill="none" stroke="#2e3436" stroke-width="1.5" points="74.2197,-190.568 74.2197,-178.568 "/>
<path fill="none" stroke="#2e3436" stroke-width="1.5" d="M74.2197,-178.568C74.2197,-172.568 80.2197,-166.568 86.2197,-166.568"/>
<text text-anchor="middle" x="101.72" y="-191.368" font-family="FreeSans" font-size="8.00" fill="#1c2021">Node[13]</text>
<polyline fill="none" stroke="#2e3436" stroke-width="1.5" points="74.2197,-184.568 129.22,-184.568 "/>
<text text-anchor="middle" x="101.72" y="-173.368" font-family="FreeSans" font-size="8.00" fill="#1c2021"> </text>
</g>
<!-- N8&#45;&gt;N13 -->
<g id="edge10" class="edge"><title>N8&#45;&gt;N13</title>
<path fill="none" stroke="#2e3436" stroke-width="2" d="M100.602,-120.335C100.797,-131.557 101.05,-146.099 101.266,-158.508"/>
<polygon fill="#2e3436" stroke="#2e3436" points="101.402,-166.297 97.8966,-158.857 100.836,-162.557 100.771,-158.807 101.271,-158.799 101.771,-158.79 101.836,-162.539 104.646,-158.74 101.402,-166.297 101.402,-166.297"/>
<text text-anchor="middle" x="104.934" y="-137.221" font-family="FreeSans" font-size="8.00" fill="#2e3436">X</text>
</g>
<!-- N14 -->
<g id="node13" class="node"><title>N14</title>
<polygon fill="#ffffff" stroke="#ffffff" stroke-width="1.5" points="13,-43.3961 44,-43.3961 56,-55.3961 56,-67.3961 44,-79.3961 13,-79.3961 1,-67.3961 1,-55.3961 13,-43.3961"/>
<path fill="#ffffff" stroke="#ffffff" stroke-width="1.5" d="M44,-43.3961C50,-43.3961 56,-49.3961 56,-55.3961"/>
<path fill="#ffffff" stroke="#ffffff" stroke-width="1.5" d="M56,-67.3961C56,-73.3961 50,-79.3961 44,-79.3961"/>
<path fill="#ffffff" stroke="#ffffff" stroke-width="1.5" d="M13,-79.3961C7,-79.3961 1,-73.3961 1,-67.3961"/>
<path fill="#ffffff" stroke="#ffffff" stroke-width="1.5" d="M1,-55.3961C1,-49.3961 7,-43.3961 13,-43.3961"/>
<polyline fill="none" stroke="#2e3436" stroke-width="1.5" points="13,-43.3961 44,-43.3961 "/>
<path fill="none" stroke="#2e3436" stroke-width="1.5" d="M44,-43.3961C50,-43.3961 56,-49.3961 56,-55.3961"/>
<polyline fill="none" stroke="#2e3436" stroke-width="1.5" points="56,-55.3961 56,-67.3961 "/>
<path fill="none" stroke="#2e3436" stroke-width="1.5" d="M56,-67.3961C56,-73.3961 50,-79.3961 44,-79.3961"/>
<polyline fill="none" stroke="#2e3436" stroke-width="1.5" points="44,-79.3961 13,-79.3961 "/>
<path fill="none" stroke="#2e3436" stroke-width="1.5" d="M13,-79.3961C7,-79.3961 1,-73.3961 1,-67.3961"/>
<polyline fill="none" stroke="#2e3436" stroke-width="1.5" points="1,-67.3961 1,-55.3961 "/>
<path fill="none" stroke="#2e3436" stroke-width="1.5" d="M1,-55.3961C1,-49.3961 7,-43.3961 13,-43.3961"/>
<text text-anchor="middle" x="28.5" y="-68.1961" font-family="FreeSans" font-size="8.00" fill="#1c2021">Node[14]</text>
<polyline fill="none" stroke="#2e3436" stroke-width="1.5" points="1,-61.3961 56,-61.3961 "/>
<text text-anchor="middle" x="28.5" y="-50.1961" font-family="FreeSans" font-size="8.00" fill="#1c2021"> </text>
</g>
<!-- N8&#45;&gt;N14 -->
<g id="edge12" class="edge"><title>N8&#45;&gt;N14</title>
<path fill="none" stroke="#2e3436" stroke-width="2" d="M73.1448,-86.6578C69.7577,-84.7412 66.2598,-82.762 62.7821,-80.7942"/>
<polygon fill="#2e3436" stroke="#2e3436" points="56.1536,-77.0435 64.3432,-77.7997 59.6636,-78.4552 62.9273,-80.3019 62.6811,-80.7371 62.4349,-81.1723 59.1711,-79.3255 61.019,-83.6745 56.1536,-77.0435 56.1536,-77.0435"/>
<text text-anchor="middle" x="64.9634" y="-87.526" font-family="FreeSans" font-size="8.00" fill="#2e3436">X</text>
</g>
</g>
</svg>
