<?xml version="1.0" encoding="UTF-8" standalone="no"?>
<!DOCTYPE svg PUBLIC "-//W3C//DTD SVG 1.1//EN"
 "http://www.w3.org/Graphics/SVG/1.1/DTD/svg11.dtd">
<!-- Generated by graphviz version 2.26.3 (20100126.1600)
 -->
<!-- Title: g Pages: 1 -->
<svg width="213pt" height="205pt"
 viewBox="0.00 0.00 212.81 205.49" xmlns="http://www.w3.org/2000/svg" xmlns:xlink="http://www.w3.org/1999/xlink">
<g id="graph1" class="graph" transform="scale(1 1) rotate(0) translate(4 201.49)">
<title>g</title>
<polygon fill="white" stroke="white" points="-4,5 -4,-201.49 209.809,-201.49 209.809,5 -4,5"/>
<!-- N8 -->
<g id="node1" class="node"><title>N8</title>
<polygon fill="#ffffff" stroke="#ffffff" stroke-width="1.5" points="91.489,-79.2245 121.489,-79.2245 133.489,-91.2245 133.489,-103.224 121.489,-115.224 91.489,-115.224 79.489,-103.224 79.489,-91.2245 91.489,-79.2245"/>
<path fill="#ffffff" stroke="#ffffff" stroke-width="1.5" d="M121.489,-79.2245C127.489,-79.2245 133.489,-85.2245 133.489,-91.2245"/>
<path fill="#ffffff" stroke="#ffffff" stroke-width="1.5" d="M133.489,-103.224C133.489,-109.224 127.489,-115.224 121.489,-115.224"/>
<path fill="#ffffff" stroke="#ffffff" stroke-width="1.5" d="M91.489,-115.224C85.489,-115.224 79.489,-109.224 79.489,-103.224"/>
<path fill="#ffffff" stroke="#ffffff" stroke-width="1.5" d="M79.489,-91.2245C79.489,-85.2245 85.489,-79.2245 91.489,-79.2245"/>
<polyline fill="none" stroke="#2e3436" stroke-width="1.5" points="91.489,-79.2245 121.489,-79.2245 "/>
<path fill="none" stroke="#2e3436" stroke-width="1.5" d="M121.489,-79.2245C127.489,-79.2245 133.489,-85.2245 133.489,-91.2245"/>
<polyline fill="none" stroke="#2e3436" stroke-width="1.5" points="133.489,-91.2245 133.489,-103.224 "/>
<path fill="none" stroke="#2e3436" stroke-width="1.5" d="M133.489,-103.224C133.489,-109.224 127.489,-115.224 121.489,-115.224"/>
<polyline fill="none" stroke="#2e3436" stroke-width="1.5" points="121.489,-115.224 91.489,-115.224 "/>
<path fill="none" stroke="#2e3436" stroke-width="1.5" d="M91.489,-115.224C85.489,-115.224 79.489,-109.224 79.489,-103.224"/>
<polyline fill="none" stroke="#2e3436" stroke-width="1.5" points="79.489,-103.224 79.489,-91.2245 "/>
<path fill="none" stroke="#2e3436" stroke-width="1.5" d="M79.489,-91.2245C79.489,-85.2245 85.489,-79.2245 91.489,-79.2245"/>
<text text-anchor="middle" x="106.489" y="-104.024" font-family="FreeSans" font-size="8.00" fill="#1c2021">Node[8]</text>
<polyline fill="none" stroke="#2e3436" stroke-width="1.5" points="79.489,-97.2245 133.489,-97.2245 "/>
<text text-anchor="middle" x="106.489" y="-86.0245" font-family="FreeSans" font-size="8.00" fill="#1c2021"> </text>
</g>
<!-- N9 -->
<g id="node3" class="node"><title>N9</title>
<polygon fill="#ffffff" stroke="#ffffff" stroke-width="1.5" points="161.809,-39.7009 191.809,-39.7009 203.809,-51.7009 203.809,-63.7009 191.809,-75.7009 161.809,-75.7009 149.809,-63.7009 149.809,-51.7009 161.809,-39.7009"/>
<path fill="#ffffff" stroke="#ffffff" stroke-width="1.5" d="M191.809,-39.7009C197.809,-39.7009 203.809,-45.7009 203.809,-51.7009"/>
<path fill="#ffffff" stroke="#ffffff" stroke-width="1.5" d="M203.809,-63.7009C203.809,-69.7009 197.809,-75.7009 191.809,-75.7009"/>
<path fill="#ffffff" stroke="#ffffff" stroke-width="1.5" d="M161.809,-75.7009C155.809,-75.7009 149.809,-69.7009 149.809,-63.7009"/>
<path fill="#ffffff" stroke="#ffffff" stroke-width="1.5" d="M149.809,-51.7009C149.809,-45.7009 155.809,-39.7009 161.809,-39.7009"/>
<polyline fill="none" stroke="#2e3436" stroke-width="1.5" points="161.809,-39.7009 191.809,-39.7009 "/>
<path fill="none" stroke="#2e3436" stroke-width="1.5" d="M191.809,-39.7009C197.809,-39.7009 203.809,-45.7009 203.809,-51.7009"/>
<polyline fill="none" stroke="#2e3436" stroke-width="1.5" points="203.809,-51.7009 203.809,-63.7009 "/>
<path fill="none" stroke="#2e3436" stroke-width="1.5" d="M203.809,-63.7009C203.809,-69.7009 197.809,-75.7009 191.809,-75.7009"/>
<polyline fill="none" stroke="#2e3436" stroke-width="1.5" points="191.809,-75.7009 161.809,-75.7009 "/>
<path fill="none" stroke="#2e3436" stroke-width="1.5" d="M161.809,-75.7009C155.809,-75.7009 149.809,-69.7009 149.809,-63.7009"/>
<polyline fill="none" stroke="#2e3436" stroke-width="1.5" points="149.809,-63.7009 149.809,-51.7009 "/>
<path fill="none" stroke="#2e3436" stroke-width="1.5" d="M149.809,-51.7009C149.809,-45.7009 155.809,-39.7009 161.809,-39.7009"/>
<text text-anchor="middle" x="176.809" y="-64.5009" font-family="FreeSans" font-size="8.00" fill="#1c2021">Node[9]</text>
<polyline fill="none" stroke="#2e3436" stroke-width="1.5" points="149.809,-57.7009 203.809,-57.7009 "/>
<text text-anchor="middle" x="176.809" y="-46.5009" font-family="FreeSans" font-size="8.00" fill="#1c2021"> </text>
</g>
<!-- N8&#45;&gt;N9 -->
<g id="edge2" class="edge"><title>N8&#45;&gt;N9</title>
<path fill="none" stroke="#2e3436" stroke-width="2" d="M133.878,-81.8305C136.741,-80.2211 139.677,-78.5711 142.604,-76.926"/>
<polygon fill="#2e3436" stroke="#2e3436" points="149.379,-73.1179 144.495,-79.7349 146.355,-75.3912 143.086,-77.2286 142.841,-76.7927 142.596,-76.3569 145.865,-74.5195 141.188,-73.8506 149.379,-73.1179 149.379,-73.1179"/>
<text text-anchor="middle" x="135.241" y="-71.1782" font-family="FreeSans" font-size="8.00" fill="#2e3436">X</text>
</g>
<!-- N10 -->
<g id="node5" class="node"><title>N10</title>
<polygon fill="#ffffff" stroke="#ffffff" stroke-width="1.5" points="112.869,-1.5 143.869,-1.5 155.869,-13.5 155.869,-25.5 143.869,-37.5 112.869,-37.5 100.869,-25.5 100.869,-13.5 112.869,-1.5"/>
<path fill="#ffffff" stroke="#ffffff" stroke-width="1.5" d="M143.869,-1.5C149.869,-1.5 155.869,-7.5 155.869,-13.5"/>
<path fill="#ffffff" stroke="#ffffff" stroke-width="1.5" d="M155.869,-25.5C155.869,-31.5 149.869,-37.5 143.869,-37.5"/>
<path fill="#ffffff" stroke="#ffffff" stroke-width="1.5" d="M112.869,-37.5C106.869,-37.5 100.869,-31.5 100.869,-25.5"/>
<path fill="#ffffff" stroke="#ffffff" stroke-width="1.5" d="M100.869,-13.5C100.869,-7.5 106.869,-1.5 112.869,-1.5"/>
<polyline fill="none" stroke="#2e3436" stroke-width="1.5" points="112.869,-1.5 143.869,-1.5 "/>
<path fill="none" stroke="#2e3436" stroke-width="1.5" d="M143.869,-1.5C149.869,-1.5 155.869,-7.5 155.869,-13.5"/>
<polyline fill="none" stroke="#2e3436" stroke-width="1.5" points="155.869,-13.5 155.869,-25.5 "/>
<path fill="none" stroke="#2e3436" stroke-width="1.5" d="M155.869,-25.5C155.869,-31.5 149.869,-37.5 143.869,-37.5"/>
<polyline fill="none" stroke="#2e3436" stroke-width="1.5" points="143.869,-37.5 112.869,-37.5 "/>
<path fill="none" stroke="#2e3436" stroke-width="1.5" d="M112.869,-37.5C106.869,-37.5 100.869,-31.5 100.869,-25.5"/>
<polyline fill="none" stroke="#2e3436" stroke-width="1.5" points="100.869,-25.5 100.869,-13.5 "/>
<path fill="none" stroke="#2e3436" stroke-width="1.5" d="M100.869,-13.5C100.869,-7.5 106.869,-1.5 112.869,-1.5"/>
<text text-anchor="middle" x="128.369" y="-26.3" font-family="FreeSans" font-size="8.00" fill="#1c2021">Node[10]</text>
<polyline fill="none" stroke="#2e3436" stroke-width="1.5" points="100.869,-19.5 155.869,-19.5 "/>
<text text-anchor="middle" x="128.369" y="-8.3" font-family="FreeSans" font-size="8.00" fill="#1c2021"> </text>
</g>
<!-- N8&#45;&gt;N10 -->
<g id="edge4" class="edge"><title>N8&#45;&gt;N10</title>
<path fill="none" stroke="#2e3436" stroke-width="2" d="M111.564,-79.1975C114.415,-69.0682 118.021,-56.2576 121.161,-45.103"/>
<polygon fill="#2e3436" stroke="#2e3436" points="123.246,-37.6984 124.462,-45.8324 122.711,-41.4436 121.695,-45.0533 121.214,-44.9178 120.732,-44.7823 121.748,-41.1726 117.965,-44.0032 123.246,-37.6984 123.246,-37.6984"/>
<text text-anchor="middle" x="111.363" y="-58.9503" font-family="FreeSans" font-size="8.00" fill="#2e3436">X</text>
</g>
<!-- N11 -->
<g id="node7" class="node"><title>N11</title>
<polygon fill="#ffffff" stroke="#ffffff" stroke-width="1.5" points="90.4845,-159.99 121.484,-159.99 133.484,-171.99 133.484,-183.99 121.484,-195.99 90.4845,-195.99 78.4845,-183.99 78.4845,-171.99 90.4845,-159.99"/>
<path fill="#ffffff" stroke="#ffffff" stroke-width="1.5" d="M121.484,-159.99C127.484,-159.99 133.484,-165.99 133.484,-171.99"/>
<path fill="#ffffff" stroke="#ffffff" stroke-width="1.5" d="M133.484,-183.99C133.484,-189.99 127.484,-195.99 121.484,-195.99"/>
<path fill="#ffffff" stroke="#ffffff" stroke-width="1.5" d="M90.4845,-195.99C84.4845,-195.99 78.4845,-189.99 78.4845,-183.99"/>
<path fill="#ffffff" stroke="#ffffff" stroke-width="1.5" d="M78.4845,-171.99C78.4845,-165.99 84.4845,-159.99 90.4845,-159.99"/>
<polyline fill="none" stroke="#2e3436" stroke-width="1.5" points="90.4845,-159.99 121.484,-159.99 "/>
<path fill="none" stroke="#2e3436" stroke-width="1.5" d="M121.484,-159.99C127.484,-159.99 133.484,-165.99 133.484,-171.99"/>
<polyline fill="none" stroke="#2e3436" stroke-width="1.5" points="133.484,-171.99 133.484,-183.99 "/>
<path fill="none" stroke="#2e3436" stroke-width="1.5" d="M133.484,-183.99C133.484,-189.99 127.484,-195.99 121.484,-195.99"/>
<polyline fill="none" stroke="#2e3436" stroke-width="1.5" points="121.484,-195.99 90.4845,-195.99 "/>
<path fill="none" stroke="#2e3436" stroke-width="1.5" d="M90.4845,-195.99C84.4845,-195.99 78.4845,-189.99 78.4845,-183.99"/>
<polyline fill="none" stroke="#2e3436" stroke-width="1.5" points="78.4845,-183.99 78.4845,-171.99 "/>
<path fill="none" stroke="#2e3436" stroke-width="1.5" d="M78.4845,-171.99C78.4845,-165.99 84.4845,-159.99 90.4845,-159.99"/>
<text text-anchor="middle" x="105.984" y="-184.79" font-family="FreeSans" font-size="8.00" fill="#1c2021">Node[11]</text>
<polyline fill="none" stroke="#2e3436" stroke-width="1.5" points="78.4845,-177.99 133.484,-177.99 "/>
<text text-anchor="middle" x="105.984" y="-166.79" font-family="FreeSans" font-size="8.00" fill="#1c2021"> </text>
</g>
<!-- N8&#45;&gt;N11 -->
<g id="edge6" class="edge"><title>N8&#45;&gt;N11</title>
<path fill="none" stroke="#2e3436" stroke-width="2" d="M106.375,-115.551C106.307,-126.394 106.22,-140.297 106.145,-152.23"/>
<polygon fill="#2e3436" stroke="#2e3436" points="106.098,-159.735 102.771,-152.214 105.622,-155.982 105.645,-152.232 106.145,-152.236 106.645,-152.239 106.622,-155.989 109.52,-152.257 106.098,-159.735 106.098,-159.735"/>
<text text-anchor="middle" x="110.26" y="-131.691" font-family="FreeSans" font-size="8.00" fill="#2e3436">X</text>
</g>
<!-- N12 -->
<g id="node9" class="node"><title>N12</title>
<polygon fill="#ffffff" stroke="#ffffff" stroke-width="1.5" points="147.575,-136.869 178.575,-136.869 190.575,-148.869 190.575,-160.869 178.575,-172.869 147.575,-172.869 135.575,-160.869 135.575,-148.869 147.575,-136.869"/>
<path fill="#ffffff" stroke="#ffffff" stroke-width="1.5" d="M178.575,-136.869C184.575,-136.869 190.575,-142.869 190.575,-148.869"/>
<path fill="#ffffff" stroke="#ffffff" stroke-width="1.5" d="M190.575,-160.869C190.575,-166.869 184.575,-172.869 178.575,-172.869"/>
<path fill="#ffffff" stroke="#ffffff" stroke-width="1.5" d="M147.575,-172.869C141.575,-172.869 135.575,-166.869 135.575,-160.869"/>
<path fill="#ffffff" stroke="#ffffff" stroke-width="1.5" d="M135.575,-148.869C135.575,-142.869 141.575,-136.869 147.575,-136.869"/>
<polyline fill="none" stroke="#2e3436" stroke-width="1.5" points="147.575,-136.869 178.575,-136.869 "/>
<path fill="none" stroke="#2e3436" stroke-width="1.5" d="M178.575,-136.869C184.575,-136.869 190.575,-142.869 190.575,-148.869"/>
<polyline fill="none" stroke="#2e3436" stroke-width="1.5" points="190.575,-148.869 190.575,-160.869 "/>
<path fill="none" stroke="#2e3436" stroke-width="1.5" d="M190.575,-160.869C190.575,-166.869 184.575,-172.869 178.575,-172.869"/>
<polyline fill="none" stroke="#2e3436" stroke-width="1.5" points="178.575,-172.869 147.575,-172.869 "/>
<path fill="none" stroke="#2e3436" stroke-width="1.5" d="M147.575,-172.869C141.575,-172.869 135.575,-166.869 135.575,-160.869"/>
<polyline fill="none" stroke="#2e3436" stroke-width="1.5" points="135.575,-160.869 135.575,-148.869 "/>
<path fill="none" stroke="#2e3436" stroke-width="1.5" d="M135.575,-148.869C135.575,-142.869 141.575,-136.869 147.575,-136.869"/>
<text text-anchor="middle" x="163.075" y="-161.669" font-family="FreeSans" font-size="8.00" fill="#1c2021">Node[12]</text>
<polyline fill="none" stroke="#2e3436" stroke-width="1.5" points="135.575,-154.869 190.575,-154.869 "/>
<text text-anchor="middle" x="163.075" y="-143.669" font-family="FreeSans" font-size="8.00" fill="#1c2021"> </text>
</g>
<!-- N8&#45;&gt;N12 -->
<g id="edge8" class="edge"><title>N8&#45;&gt;N12</title>
<path fill="none" stroke="#2e3436" stroke-width="2" d="M124.393,-115.464C129.244,-120.405 134.568,-125.828 139.673,-131.029"/>
<polygon fill="#2e3436" stroke="#2e3436" points="145.093,-136.551 137.431,-133.563 142.109,-134.225 139.482,-131.549 139.839,-131.198 140.196,-130.848 142.823,-133.524 142.248,-128.834 145.093,-136.551 145.093,-136.551"/>
<text text-anchor="middle" x="127.033" y="-126.046" font-family="FreeSans" font-size="8.00" fill="#2e3436">X</text>
</g>
<!-- N13 -->
<g id="node11" class="node"><title>N13</title>
<polygon fill="#ffffff" stroke="#ffffff" stroke-width="1.5" points="13,-99.7992 44,-99.7992 56,-111.799 56,-123.799 44,-135.799 13,-135.799 1,-123.799 1,-111.799 13,-99.7992"/>
<path fill="#ffffff" stroke="#ffffff" stroke-width="1.5" d="M44,-99.7992C50,-99.7992 56,-105.799 56,-111.799"/>
<path fill="#ffffff" stroke="#ffffff" stroke-width="1.5" d="M56,-123.799C56,-129.799 50,-135.799 44,-135.799"/>
<path fill="#ffffff" stroke="#ffffff" stroke-width="1.5" d="M13,-135.799C7,-135.799 1,-129.799 1,-123.799"/>
<path fill="#ffffff" stroke="#ffffff" stroke-width="1.5" d="M1,-111.799C1,-105.799 7,-99.7992 13,-99.7992"/>
<polyline fill="none" stroke="#2e3436" stroke-width="1.5" points="13,-99.7992 44,-99.7992 "/>
<path fill="none" stroke="#2e3436" stroke-width="1.5" d="M44,-99.7992C50,-99.7992 56,-105.799 56,-111.799"/>
<polyline fill="none" stroke="#2e3436" stroke-width="1.5" points="56,-111.799 56,-123.799 "/>
<path fill="none" stroke="#2e3436" stroke-width="1.5" d="M56,-123.799C56,-129.799 50,-135.799 44,-135.799"/>
<polyline fill="none" stroke="#2e3436" stroke-width="1.5" points="44,-135.799 13,-135.799 "/>
<path fill="none" stroke="#2e3436" stroke-width="1.5" d="M13,-135.799C7,-135.799 1,-129.799 1,-123.799"/>
<polyline fill="none" stroke="#2e3436" stroke-width="1.5" points="1,-123.799 1,-111.799 "/>
<path fill="none" stroke="#2e3436" stroke-width="1.5" d="M1,-111.799C1,-105.799 7,-99.7992 13,-99.7992"/>
<text text-anchor="middle" x="28.5" y="-124.599" font-family="FreeSans" font-size="8.00" fill="#1c2021">Node[13]</text>
<polyline fill="none" stroke="#2e3436" stroke-width="1.5" points="1,-117.799 56,-117.799 "/>
<text text-anchor="middle" x="28.5" y="-106.599" font-family="FreeSans" font-size="8.00" fill="#1c2021"> </text>
</g>
<!-- N8&#45;&gt;N13 -->
<g id="edge10" class="edge"><title>N8&#45;&gt;N13</title>
<path fill="none" stroke="#2e3436" stroke-width="2" d="M79.2122,-104.42C74.1951,-105.744 68.8927,-107.143 63.682,-108.518"/>
<polygon fill="#2e3436" stroke="#2e3436" points="56.1572,-110.503 62.5482,-105.326 59.6556,-109.063 63.2816,-108.106 63.4091,-108.59 63.5367,-109.073 59.9107,-110.03 64.2701,-111.853 56.1572,-110.503 56.1572,-110.503"/>
<text text-anchor="middle" x="72.4471" y="-110.269" font-family="FreeSans" font-size="8.00" fill="#2e3436">X</text>
</g>
<!-- N14 -->
<g id="node13" class="node"><title>N14</title>
<polygon fill="#ffffff" stroke="#ffffff" stroke-width="1.5" points="21.185,-38.6619 52.185,-38.6619 64.185,-50.6619 64.185,-62.6619 52.185,-74.6619 21.185,-74.6619 9.18502,-62.6619 9.18502,-50.6619 21.185,-38.6619"/>
<path fill="#ffffff" stroke="#ffffff" stroke-width="1.5" d="M52.185,-38.6619C58.185,-38.6619 64.185,-44.6619 64.185,-50.6619"/>
<path fill="#ffffff" stroke="#ffffff" stroke-width="1.5" d="M64.185,-62.6619C64.185,-68.6619 58.185,-74.6619 52.185,-74.6619"/>
<path fill="#ffffff" stroke="#ffffff" stroke-width="1.5" d="M21.185,-74.6619C15.185,-74.6619 9.18502,-68.6619 9.18502,-62.6619"/>
<path fill="#ffffff" stroke="#ffffff" stroke-width="1.5" d="M9.18502,-50.6619C9.18502,-44.6619 15.185,-38.6619 21.185,-38.6619"/>
<polyline fill="none" stroke="#2e3436" stroke-width="1.5" points="21.185,-38.6619 52.185,-38.6619 "/>
<path fill="none" stroke="#2e3436" stroke-width="1.5" d="M52.185,-38.6619C58.185,-38.6619 64.185,-44.6619 64.185,-50.6619"/>
<polyline fill="none" stroke="#2e3436" stroke-width="1.5" points="64.185,-50.6619 64.185,-62.6619 "/>
<path fill="none" stroke="#2e3436" stroke-width="1.5" d="M64.185,-62.6619C64.185,-68.6619 58.185,-74.6619 52.185,-74.6619"/>
<polyline fill="none" stroke="#2e3436" stroke-width="1.5" points="52.185,-74.6619 21.185,-74.6619 "/>
<path fill="none" stroke="#2e3436" stroke-width="1.5" d="M21.185,-74.6619C15.185,-74.6619 9.18502,-68.6619 9.18502,-62.6619"/>
<polyline fill="none" stroke="#2e3436" stroke-width="1.5" points="9.18502,-62.6619 9.18502,-50.6619 "/>
<path fill="none" stroke="#2e3436" stroke-width="1.5" d="M9.18502,-50.6619C9.18502,-44.6619 15.185,-38.6619 21.185,-38.6619"/>
<text text-anchor="middle" x="36.685" y="-63.4619" font-family="FreeSans" font-size="8.00" fill="#1c2021">Node[14]</text>
<polyline fill="none" stroke="#2e3436" stroke-width="1.5" points="9.18502,-56.6619 64.185,-56.6619 "/>
<text text-anchor="middle" x="36.685" y="-45.4619" font-family="FreeSans" font-size="8.00" fill="#1c2021"> </text>
</g>
<!-- N8&#45;&gt;N14 -->
<g id="edge12" class="edge"><title>N8&#45;&gt;N14</title>
<path fill="none" stroke="#2e3436" stroke-width="2" d="M79.3011,-81.4257C76.5449,-79.8241 73.7211,-78.1832 70.9032,-76.5458"/>
<polygon fill="#2e3436" stroke="#2e3436" points="64.3737,-72.7515 72.554,-73.6017 67.8672,-74.2033 71.1095,-76.0875 70.8583,-76.5198 70.6071,-76.9521 67.3648,-75.068 69.1626,-79.4379 64.3737,-72.7515 64.3737,-72.7515"/>
<text text-anchor="middle" x="72.1022" y="-82.7858" font-family="FreeSans" font-size="8.00" fill="#2e3436">X</text>
</g>
<!-- N9&#45;&gt;N10 -->
<g id="edge14" class="edge"><title>N9&#45;&gt;N10</title>
<path fill="none" stroke="#2e3436" stroke-width="2" d="M153.724,-39.4955C153.626,-39.4186 153.529,-39.3418 153.431,-39.2649"/>
<polygon fill="#2e3436" stroke="#2e3436" points="151.383,-37.6495 159.362,-39.6438 154.637,-39.5791 157.582,-41.9013 157.272,-42.2939 156.963,-42.6865 154.018,-40.3643 155.182,-44.944 151.383,-37.6495 151.383,-37.6495"/>
<text text-anchor="middle" x="153.578" y="-31.1802" font-family="FreeSans" font-size="8.00" fill="#2e3436">X</text>
</g>
<!-- N11&#45;&gt;N12 -->
<g id="edge16" class="edge"><title>N11&#45;&gt;N12</title>
<path fill="none" stroke="#2e3436" stroke-width="2" d="M133.526,-166.836C133.669,-166.778 133.812,-166.72 133.954,-166.662"/>
<polygon fill="#2e3436" stroke="#2e3436" points="135.238,-166.143 129.553,-172.086 131.95,-168.014 128.474,-169.422 128.286,-168.958 128.099,-168.495 131.574,-167.087 127.019,-165.83 135.238,-166.143 135.238,-166.143"/>
<text text-anchor="middle" x="133.74" y="-158.549" font-family="FreeSans" font-size="8.00" fill="#2e3436">X</text>
</g>
<!-- N13&#45;&gt;N14 -->
<g id="edge18" class="edge"><title>N13&#45;&gt;N14</title>
<path fill="none" stroke="#2e3436" stroke-width="2" d="M30.9115,-99.7866C31.6377,-94.3624 32.4494,-88.2996 33.2294,-82.4733"/>
<polygon fill="#2e3436" stroke="#2e3436" points="34.2625,-74.7569 36.6123,-82.6385 34.2604,-78.5401 33.7627,-82.257 33.2672,-82.1906 32.7716,-82.1242 33.2692,-78.4074 29.922,-81.7427 34.2625,-74.7569 34.2625,-74.7569"/>
<text text-anchor="middle" x="28.0705" y="-88.93" font-family="FreeSans" font-size="8.00" fill="#2e3436">X</text>
</g>
</g>
</svg>
