<?xml version="1.0" encoding="UTF-8" standalone="no"?>
<!DOCTYPE svg PUBLIC "-//W3C//DTD SVG 1.1//EN"
 "http://www.w3.org/Graphics/SVG/1.1/DTD/svg11.dtd">
<!-- Generated by graphviz version 2.26.3 (20100126.1600)
 -->
<!-- Title: g Pages: 1 -->
<svg width="145pt" height="130pt"
 viewBox="0.00 0.00 145.00 130.00" xmlns="http://www.w3.org/2000/svg" xmlns:xlink="http://www.w3.org/1999/xlink">
<g id="graph1" class="graph" transform="scale(1 1) rotate(0) translate(4 126)">
<title>g</title>
<polygon fill="white" stroke="white" points="-4,5 -4,-126 142,-126 142,5 -4,5"/>
<!-- N14 -->
<g id="node1" class="node"><title>N14</title>
<polygon fill="#ffffff" stroke="#ffffff" stroke-width="1.5" points="11.5,-85 42.5,-85 54.5,-97 54.5,-109 42.5,-121 11.5,-121 -0.5,-109 -0.5,-97 11.5,-85"/>
<path fill="#ffffff" stroke="#ffffff" stroke-width="1.5" d="M42.5,-85C48.5,-85 54.5,-91 54.5,-97"/>
<path fill="#ffffff" stroke="#ffffff" stroke-width="1.5" d="M54.5,-109C54.5,-115 48.5,-121 42.5,-121"/>
<path fill="#ffffff" stroke="#ffffff" stroke-width="1.5" d="M11.5,-121C5.5,-121 -0.5,-115 -0.5,-109"/>
<path fill="#ffffff" stroke="#ffffff" stroke-width="1.5" d="M-0.5,-97C-0.5,-91 5.5,-85 11.5,-85"/>
<polyline fill="none" stroke="#2e3436" stroke-width="1.5" points="11.5,-85 42.5,-85 "/>
<path fill="none" stroke="#2e3436" stroke-width="1.5" d="M42.5,-85C48.5,-85 54.5,-91 54.5,-97"/>
<polyline fill="none" stroke="#2e3436" stroke-width="1.5" points="54.5,-97 54.5,-109 "/>
<path fill="none" stroke="#2e3436" stroke-width="1.5" d="M54.5,-109C54.5,-115 48.5,-121 42.5,-121"/>
<polyline fill="none" stroke="#2e3436" stroke-width="1.5" points="42.5,-121 11.5,-121 "/>
<path fill="none" stroke="#2e3436" stroke-width="1.5" d="M11.5,-121C5.5,-121 -0.5,-115 -0.5,-109"/>
<polyline fill="none" stroke="#2e3436" stroke-width="1.5" points="-0.5,-109 -0.5,-97 "/>
<path fill="none" stroke="#2e3436" stroke-width="1.5" d="M-0.5,-97C-0.5,-91 5.5,-85 11.5,-85"/>
<text text-anchor="middle" x="27" y="-109.8" font-family="FreeSans" font-size="8.00" fill="#1c2021">Node[14]</text>
<polyline fill="none" stroke="#2e3436" stroke-width="1.5" points="-0.5,-103 54.5,-103 "/>
<text text-anchor="middle" x="27" y="-91.8" font-family="FreeSans" font-size="8.00" fill="#1c2021"> </text>
</g>
<!-- N15 -->
<g id="node3" class="node"><title>N15</title>
<polygon fill="#ffffff" stroke="#ffffff" stroke-width="1.5" points="11.5,-1 42.5,-1 54.5,-13 54.5,-25 42.5,-37 11.5,-37 -0.5,-25 -0.5,-13 11.5,-1"/>
<path fill="#ffffff" stroke="#ffffff" stroke-width="1.5" d="M42.5,-1C48.5,-1 54.5,-7 54.5,-13"/>
<path fill="#ffffff" stroke="#ffffff" stroke-width="1.5" d="M54.5,-25C54.5,-31 48.5,-37 42.5,-37"/>
<path fill="#ffffff" stroke="#ffffff" stroke-width="1.5" d="M11.5,-37C5.5,-37 -0.5,-31 -0.5,-25"/>
<path fill="#ffffff" stroke="#ffffff" stroke-width="1.5" d="M-0.5,-13C-0.5,-7 5.5,-1 11.5,-1"/>
<polyline fill="none" stroke="#2e3436" stroke-width="1.5" points="11.5,-1 42.5,-1 "/>
<path fill="none" stroke="#2e3436" stroke-width="1.5" d="M42.5,-1C48.5,-1 54.5,-7 54.5,-13"/>
<polyline fill="none" stroke="#2e3436" stroke-width="1.5" points="54.5,-13 54.5,-25 "/>
<path fill="none" stroke="#2e3436" stroke-width="1.5" d="M54.5,-25C54.5,-31 48.5,-37 42.5,-37"/>
<polyline fill="none" stroke="#2e3436" stroke-width="1.5" points="42.5,-37 11.5,-37 "/>
<path fill="none" stroke="#2e3436" stroke-width="1.5" d="M11.5,-37C5.5,-37 -0.5,-31 -0.5,-25"/>
<polyline fill="none" stroke="#2e3436" stroke-width="1.5" points="-0.5,-25 -0.5,-13 "/>
<path fill="none" stroke="#2e3436" stroke-width="1.5" d="M-0.5,-13C-0.5,-7 5.5,-1 11.5,-1"/>
<text text-anchor="middle" x="27" y="-25.8" font-family="FreeSans" font-size="8.00" fill="#1c2021">Node[15]</text>
<polyline fill="none" stroke="#2e3436" stroke-width="1.5" points="-0.5,-19 54.5,-19 "/>
<text text-anchor="middle" x="27" y="-7.8" font-family="FreeSans" font-size="8.00" fill="#1c2021"> </text>
</g>
<!-- N14&#45;&gt;N15 -->
<g id="edge2" class="edge"><title>N14&#45;&gt;N15</title>
<path fill="none" stroke="#2e3436" stroke-width="2" d="M27,-84.7733C27,-73.1053 27,-57.7874 27,-44.8699"/>
<polygon fill="#2e3436" stroke="#2e3436" points="27,-37.1912 30.3751,-44.6911 27.5,-40.9412 27.5001,-44.6912 27.0001,-44.6912 26.5001,-44.6912 26.5,-40.9412 23.6251,-44.6912 27,-37.1912 27,-37.1912"/>
<text text-anchor="middle" x="34" y="-58.8" font-family="FreeSans" font-size="8.00" fill="#2e3436">foo</text>
</g>
<!-- N16 -->
<g id="node4" class="node"><title>N16</title>
<polygon fill="#ffffff" stroke="#ffffff" stroke-width="1.5" points="94.5,-85 125.5,-85 137.5,-97 137.5,-109 125.5,-121 94.5,-121 82.5,-109 82.5,-97 94.5,-85"/>
<path fill="#ffffff" stroke="#ffffff" stroke-width="1.5" d="M125.5,-85C131.5,-85 137.5,-91 137.5,-97"/>
<path fill="#ffffff" stroke="#ffffff" stroke-width="1.5" d="M137.5,-109C137.5,-115 131.5,-121 125.5,-121"/>
<path fill="#ffffff" stroke="#ffffff" stroke-width="1.5" d="M94.5,-121C88.5,-121 82.5,-115 82.5,-109"/>
<path fill="#ffffff" stroke="#ffffff" stroke-width="1.5" d="M82.5,-97C82.5,-91 88.5,-85 94.5,-85"/>
<polyline fill="none" stroke="#2e3436" stroke-width="1.5" points="94.5,-85 125.5,-85 "/>
<path fill="none" stroke="#2e3436" stroke-width="1.5" d="M125.5,-85C131.5,-85 137.5,-91 137.5,-97"/>
<polyline fill="none" stroke="#2e3436" stroke-width="1.5" points="137.5,-97 137.5,-109 "/>
<path fill="none" stroke="#2e3436" stroke-width="1.5" d="M137.5,-109C137.5,-115 131.5,-121 125.5,-121"/>
<polyline fill="none" stroke="#2e3436" stroke-width="1.5" points="125.5,-121 94.5,-121 "/>
<path fill="none" stroke="#2e3436" stroke-width="1.5" d="M94.5,-121C88.5,-121 82.5,-115 82.5,-109"/>
<polyline fill="none" stroke="#2e3436" stroke-width="1.5" points="82.5,-109 82.5,-97 "/>
<path fill="none" stroke="#2e3436" stroke-width="1.5" d="M82.5,-97C82.5,-91 88.5,-85 94.5,-85"/>
<text text-anchor="middle" x="110" y="-109.8" font-family="FreeSans" font-size="8.00" fill="#1c2021">Node[16]</text>
<polyline fill="none" stroke="#2e3436" stroke-width="1.5" points="82.5,-103 137.5,-103 "/>
<text text-anchor="middle" x="110" y="-91.8" font-family="FreeSans" font-size="8.00" fill="#1c2021"> </text>
</g>
<!-- N17 -->
<g id="node6" class="node"><title>N17</title>
<polygon fill="#ffffff" stroke="#ffffff" stroke-width="1.5" points="94.5,-1 125.5,-1 137.5,-13 137.5,-25 125.5,-37 94.5,-37 82.5,-25 82.5,-13 94.5,-1"/>
<path fill="#ffffff" stroke="#ffffff" stroke-width="1.5" d="M125.5,-1C131.5,-1 137.5,-7 137.5,-13"/>
<path fill="#ffffff" stroke="#ffffff" stroke-width="1.5" d="M137.5,-25C137.5,-31 131.5,-37 125.5,-37"/>
<path fill="#ffffff" stroke="#ffffff" stroke-width="1.5" d="M94.5,-37C88.5,-37 82.5,-31 82.5,-25"/>
<path fill="#ffffff" stroke="#ffffff" stroke-width="1.5" d="M82.5,-13C82.5,-7 88.5,-1 94.5,-1"/>
<polyline fill="none" stroke="#2e3436" stroke-width="1.5" points="94.5,-1 125.5,-1 "/>
<path fill="none" stroke="#2e3436" stroke-width="1.5" d="M125.5,-1C131.5,-1 137.5,-7 137.5,-13"/>
<polyline fill="none" stroke="#2e3436" stroke-width="1.5" points="137.5,-13 137.5,-25 "/>
<path fill="none" stroke="#2e3436" stroke-width="1.5" d="M137.5,-25C137.5,-31 131.5,-37 125.5,-37"/>
<polyline fill="none" stroke="#2e3436" stroke-width="1.5" points="125.5,-37 94.5,-37 "/>
<path fill="none" stroke="#2e3436" stroke-width="1.5" d="M94.5,-37C88.5,-37 82.5,-31 82.5,-25"/>
<polyline fill="none" stroke="#2e3436" stroke-width="1.5" points="82.5,-25 82.5,-13 "/>
<path fill="none" stroke="#2e3436" stroke-width="1.5" d="M82.5,-13C82.5,-7 88.5,-1 94.5,-1"/>
<text text-anchor="middle" x="110" y="-25.8" font-family="FreeSans" font-size="8.00" fill="#1c2021">Node[17]</text>
<polyline fill="none" stroke="#2e3436" stroke-width="1.5" points="82.5,-19 137.5,-19 "/>
<text text-anchor="middle" x="110" y="-7.8" font-family="FreeSans" font-size="8.00" fill="#1c2021"> </text>
</g>
<!-- N16&#45;&gt;N17 -->
<g id="edge4" class="edge"><title>N16&#45;&gt;N17</title>
<path fill="none" stroke="#4e9a06" stroke-width="2" d="M110,-84.7733C110,-73.1053 110,-57.7874 110,-44.8699"/>
<polygon fill="#4e9a06" stroke="#4e9a06" points="110,-37.1912 113.375,-44.6911 110.5,-40.9412 110.5,-44.6912 110,-44.6912 109.5,-44.6912 109.5,-40.9412 106.625,-44.6912 110,-37.1912 110,-37.1912"/>
<text text-anchor="middle" x="117.5" y="-58.8" font-family="FreeSans" font-size="8.00" fill="#4e9a06">bar</text>
</g>
</g>
</svg>
