<?xml version="1.0" encoding="UTF-8" standalone="no"?>
<!DOCTYPE svg PUBLIC "-//W3C//DTD SVG 1.1//EN"
 "http://www.w3.org/Graphics/SVG/1.1/DTD/svg11.dtd">
<!-- Generated by graphviz version 2.26.3 (20100126.1600)
 -->
<!-- Title: g Pages: 1 -->
<svg width="189pt" height="140pt"
 viewBox="0.00 0.00 189.00 140.00" xmlns="http://www.w3.org/2000/svg" xmlns:xlink="http://www.w3.org/1999/xlink">
<g id="graph1" class="graph" transform="scale(1 1) rotate(0) translate(4 136)">
<title>g</title>
<polygon fill="white" stroke="white" points="-4,5 -4,-136 186,-136 186,5 -4,5"/>
<!-- N0 -->
<g id="node1" class="node"><title>N0</title>
<polygon fill="#ffffff" stroke="#ffffff" stroke-width="1.5" points="12,-95 42,-95 54,-107 54,-119 42,-131 12,-131 0,-119 0,-107 12,-95"/>
<path fill="#ffffff" stroke="#ffffff" stroke-width="1.5" d="M42,-95C48,-95 54,-101 54,-107"/>
<path fill="#ffffff" stroke="#ffffff" stroke-width="1.5" d="M54,-119C54,-125 48,-131 42,-131"/>
<path fill="#ffffff" stroke="#ffffff" stroke-width="1.5" d="M12,-131C6,-131 0,-125 0,-119"/>
<path fill="#ffffff" stroke="#ffffff" stroke-width="1.5" d="M0,-107C0,-101 6,-95 12,-95"/>
<polyline fill="none" stroke="#2e3436" stroke-width="1.5" points="12,-95 42,-95 "/>
<path fill="none" stroke="#2e3436" stroke-width="1.5" d="M42,-95C48,-95 54,-101 54,-107"/>
<polyline fill="none" stroke="#2e3436" stroke-width="1.5" points="54,-107 54,-119 "/>
<path fill="none" stroke="#2e3436" stroke-width="1.5" d="M54,-119C54,-125 48,-131 42,-131"/>
<polyline fill="none" stroke="#2e3436" stroke-width="1.5" points="42,-131 12,-131 "/>
<path fill="none" stroke="#2e3436" stroke-width="1.5" d="M12,-131C6,-131 0,-125 0,-119"/>
<polyline fill="none" stroke="#2e3436" stroke-width="1.5" points="0,-119 0,-107 "/>
<path fill="none" stroke="#2e3436" stroke-width="1.5" d="M0,-107C0,-101 6,-95 12,-95"/>
<text text-anchor="middle" x="27" y="-119.8" font-family="FreeSans" font-size="8.00" fill="#1c2021">Node[0]</text>
<polyline fill="none" stroke="#2e3436" stroke-width="1.5" points="0,-113 54,-113 "/>
<text text-anchor="middle" x="27" y="-101.8" font-family="FreeSans" font-size="8.00" fill="#1c2021"> </text>
</g>
<!-- N24 -->
<g id="node2" class="node"><title>N24</title>
<polygon fill="#ffffff" stroke="#ffffff" stroke-width="1.5" points="95,-95 145,-95 157,-107 157,-119 145,-131 95,-131 83,-119 83,-107 95,-95"/>
<path fill="#ffffff" stroke="#ffffff" stroke-width="1.5" d="M145,-95C151,-95 157,-101 157,-107"/>
<path fill="#ffffff" stroke="#ffffff" stroke-width="1.5" d="M157,-119C157,-125 151,-131 145,-131"/>
<path fill="#ffffff" stroke="#ffffff" stroke-width="1.5" d="M95,-131C89,-131 83,-125 83,-119"/>
<path fill="#ffffff" stroke="#ffffff" stroke-width="1.5" d="M83,-107C83,-101 89,-95 95,-95"/>
<polyline fill="none" stroke="#2e3436" stroke-width="1.5" points="95,-95 145,-95 "/>
<path fill="none" stroke="#2e3436" stroke-width="1.5" d="M145,-95C151,-95 157,-101 157,-107"/>
<polyline fill="none" stroke="#2e3436" stroke-width="1.5" points="157,-107 157,-119 "/>
<path fill="none" stroke="#2e3436" stroke-width="1.5" d="M157,-119C157,-125 151,-131 145,-131"/>
<polyline fill="none" stroke="#2e3436" stroke-width="1.5" points="145,-131 95,-131 "/>
<path fill="none" stroke="#2e3436" stroke-width="1.5" d="M95,-131C89,-131 83,-125 83,-119"/>
<polyline fill="none" stroke="#2e3436" stroke-width="1.5" points="83,-119 83,-107 "/>
<path fill="none" stroke="#2e3436" stroke-width="1.5" d="M83,-107C83,-101 89,-95 95,-95"/>
<text text-anchor="middle" x="120" y="-119.8" font-family="FreeSans" font-size="8.00" fill="#1c2021">Node[24]</text>
<polyline fill="none" stroke="#2e3436" stroke-width="1.5" points="83,-113 157,-113 "/>
<text text-anchor="start" x="91" y="-101.8" font-family="FreeSans" font-size="8.00" fill="#1c2021">name = &#39;bob&#39;</text>
</g>
<!-- N25 -->
<g id="node4" class="node"><title>N25</title>
<polygon fill="#ffffff" stroke="#ffffff" stroke-width="1.5" points="104,-1 136,-1 148,-13 148,-25 136,-37 104,-37 92,-25 92,-13 104,-1"/>
<path fill="#ffffff" stroke="#ffffff" stroke-width="1.5" d="M136,-1C142,-1 148,-7 148,-13"/>
<path fill="#ffffff" stroke="#ffffff" stroke-width="1.5" d="M148,-25C148,-31 142,-37 136,-37"/>
<path fill="#ffffff" stroke="#ffffff" stroke-width="1.5" d="M104,-37C98,-37 92,-31 92,-25"/>
<path fill="#ffffff" stroke="#ffffff" stroke-width="1.5" d="M92,-13C92,-7 98,-1 104,-1"/>
<polyline fill="none" stroke="#2e3436" stroke-width="1.5" points="104,-1 136,-1 "/>
<path fill="none" stroke="#2e3436" stroke-width="1.5" d="M136,-1C142,-1 148,-7 148,-13"/>
<polyline fill="none" stroke="#2e3436" stroke-width="1.5" points="148,-13 148,-25 "/>
<path fill="none" stroke="#2e3436" stroke-width="1.5" d="M148,-25C148,-31 142,-37 136,-37"/>
<polyline fill="none" stroke="#2e3436" stroke-width="1.5" points="136,-37 104,-37 "/>
<path fill="none" stroke="#2e3436" stroke-width="1.5" d="M104,-37C98,-37 92,-31 92,-25"/>
<polyline fill="none" stroke="#2e3436" stroke-width="1.5" points="92,-25 92,-13 "/>
<path fill="none" stroke="#2e3436" stroke-width="1.5" d="M92,-13C92,-7 98,-1 104,-1"/>
<text text-anchor="middle" x="120" y="-25.8" font-family="FreeSans" font-size="8.00" fill="#1c2021">Node[25]</text>
<polyline fill="none" stroke="#2e3436" stroke-width="1.5" points="92,-19 148,-19 "/>
<text text-anchor="start" x="100" y="-7.8" font-family="FreeSans" font-size="8.00" fill="#1c2021">age = 12</text>
</g>
<!-- N24&#45;&gt;N25 -->
<g id="edge2" class="edge"><title>N24&#45;&gt;N25</title>
<path fill="none" stroke="#2e3436" stroke-width="2" d="M120,-94.8759C120,-80.7014 120,-60.806 120,-44.944"/>
<polygon fill="#2e3436" stroke="#2e3436" points="120,-37.0685 123.375,-44.5685 120.5,-40.8185 120.5,-44.5685 120,-44.5685 119.5,-44.5685 119.5,-40.8185 116.625,-44.5685 120,-37.0685 120,-37.0685"/>
<text text-anchor="middle" x="150.5" y="-68.8" font-family="FreeSans" font-size="8.00" fill="#2e3436">KNOWS</text>
<text text-anchor="start" x="120" y="-58.8" font-family="FreeSans" font-size="8.00" fill="#2e3436">since = &#39;2010&#39;</text>
</g>
</g>
</svg>
