<?xml version="1.0" encoding="UTF-8" standalone="no"?>
<!DOCTYPE svg PUBLIC "-//W3C//DTD SVG 1.1//EN"
 "http://www.w3.org/Graphics/SVG/1.1/DTD/svg11.dtd">
<!-- Generated by graphviz version 2.26.3 (20100126.1600)
 -->
<!-- Title: g Pages: 1 -->
<svg width="251pt" height="130pt"
 viewBox="0.00 0.00 251.00 130.00" xmlns="http://www.w3.org/2000/svg" xmlns:xlink="http://www.w3.org/1999/xlink">
<g id="graph1" class="graph" transform="scale(1 1) rotate(0) translate(4 126)">
<title>g</title>
<polygon fill="white" stroke="white" points="-4,5 -4,-126 248,-126 248,5 -4,5"/>
<!-- N98 -->
<g id="node1" class="node"><title>N98</title>
<polygon fill="#ffffff" stroke="#ffffff" stroke-width="1.5" points="12,-1 64,-1 76,-13 76,-25 64,-37 12,-37 0,-25 0,-13 12,-1"/>
<path fill="#ffffff" stroke="#ffffff" stroke-width="1.5" d="M64,-1C70,-1 76,-7 76,-13"/>
<path fill="#ffffff" stroke="#ffffff" stroke-width="1.5" d="M76,-25C76,-31 70,-37 64,-37"/>
<path fill="#ffffff" stroke="#ffffff" stroke-width="1.5" d="M12,-37C6,-37 0,-31 0,-25"/>
<path fill="#ffffff" stroke="#ffffff" stroke-width="1.5" d="M0,-13C0,-7 6,-1 12,-1"/>
<polyline fill="none" stroke="#2e3436" stroke-width="1.5" points="12,-1 64,-1 "/>
<path fill="none" stroke="#2e3436" stroke-width="1.5" d="M64,-1C70,-1 76,-7 76,-13"/>
<polyline fill="none" stroke="#2e3436" stroke-width="1.5" points="76,-13 76,-25 "/>
<path fill="none" stroke="#2e3436" stroke-width="1.5" d="M76,-25C76,-31 70,-37 64,-37"/>
<polyline fill="none" stroke="#2e3436" stroke-width="1.5" points="64,-37 12,-37 "/>
<path fill="none" stroke="#2e3436" stroke-width="1.5" d="M12,-37C6,-37 0,-31 0,-25"/>
<polyline fill="none" stroke="#2e3436" stroke-width="1.5" points="0,-25 0,-13 "/>
<path fill="none" stroke="#2e3436" stroke-width="1.5" d="M0,-13C0,-7 6,-1 12,-1"/>
<text text-anchor="middle" x="38" y="-25.8" font-family="FreeSans" font-size="8.00" fill="#1c2021">Node[98]</text>
<polyline fill="none" stroke="#2e3436" stroke-width="1.5" points="0,-19 76,-19 "/>
<text text-anchor="start" x="8" y="-7.8" font-family="FreeSans" font-size="8.00" fill="#1c2021">name = &#39;John&#39;</text>
</g>
<!-- N99 -->
<g id="node2" class="node"><title>N99</title>
<polygon fill="#ffffff" stroke="#ffffff" stroke-width="1.5" points="22.5,-85 53.5,-85 65.5,-97 65.5,-109 53.5,-121 22.5,-121 10.5,-109 10.5,-97 22.5,-85"/>
<path fill="#ffffff" stroke="#ffffff" stroke-width="1.5" d="M53.5,-85C59.5,-85 65.5,-91 65.5,-97"/>
<path fill="#ffffff" stroke="#ffffff" stroke-width="1.5" d="M65.5,-109C65.5,-115 59.5,-121 53.5,-121"/>
<path fill="#ffffff" stroke="#ffffff" stroke-width="1.5" d="M22.5,-121C16.5,-121 10.5,-115 10.5,-109"/>
<path fill="#ffffff" stroke="#ffffff" stroke-width="1.5" d="M10.5,-97C10.5,-91 16.5,-85 22.5,-85"/>
<polyline fill="none" stroke="#2e3436" stroke-width="1.5" points="22.5,-85 53.5,-85 "/>
<path fill="none" stroke="#2e3436" stroke-width="1.5" d="M53.5,-85C59.5,-85 65.5,-91 65.5,-97"/>
<polyline fill="none" stroke="#2e3436" stroke-width="1.5" points="65.5,-97 65.5,-109 "/>
<path fill="none" stroke="#2e3436" stroke-width="1.5" d="M65.5,-109C65.5,-115 59.5,-121 53.5,-121"/>
<polyline fill="none" stroke="#2e3436" stroke-width="1.5" points="53.5,-121 22.5,-121 "/>
<path fill="none" stroke="#2e3436" stroke-width="1.5" d="M22.5,-121C16.5,-121 10.5,-115 10.5,-109"/>
<polyline fill="none" stroke="#2e3436" stroke-width="1.5" points="10.5,-109 10.5,-97 "/>
<path fill="none" stroke="#2e3436" stroke-width="1.5" d="M10.5,-97C10.5,-91 16.5,-85 22.5,-85"/>
<text text-anchor="middle" x="38" y="-109.8" font-family="FreeSans" font-size="8.00" fill="#1c2021">Node[99]</text>
<polyline fill="none" stroke="#2e3436" stroke-width="1.5" points="10.5,-103 65.5,-103 "/>
<text text-anchor="start" x="18.5" y="-91.8" font-family="FreeSans" font-size="8.00" fill="#1c2021">age = 1</text>
</g>
<!-- N99&#45;&gt;N98 -->
<g id="edge2" class="edge"><title>N99&#45;&gt;N98</title>
<path fill="none" stroke="#2e3436" stroke-width="2" d="M38,-84.7733C38,-73.1053 38,-57.7874 38,-44.8699"/>
<polygon fill="#2e3436" stroke="#2e3436" points="38,-37.1912 41.3751,-44.6911 38.5,-40.9412 38.5001,-44.6912 38.0001,-44.6912 37.5001,-44.6912 37.5,-40.9412 34.6251,-44.6912 38,-37.1912 38,-37.1912"/>
<text text-anchor="middle" x="52" y="-58.8" font-family="FreeSans" font-size="8.00" fill="#2e3436">knows</text>
</g>
<!-- N100 -->
<g id="node4" class="node"><title>N100</title>
<polygon fill="#ffffff" stroke="#ffffff" stroke-width="1.5" points="106,-85 142,-85 154,-97 154,-109 142,-121 106,-121 94,-109 94,-97 106,-85"/>
<path fill="#ffffff" stroke="#ffffff" stroke-width="1.5" d="M142,-85C148,-85 154,-91 154,-97"/>
<path fill="#ffffff" stroke="#ffffff" stroke-width="1.5" d="M154,-109C154,-115 148,-121 142,-121"/>
<path fill="#ffffff" stroke="#ffffff" stroke-width="1.5" d="M106,-121C100,-121 94,-115 94,-109"/>
<path fill="#ffffff" stroke="#ffffff" stroke-width="1.5" d="M94,-97C94,-91 100,-85 106,-85"/>
<polyline fill="none" stroke="#2e3436" stroke-width="1.5" points="106,-85 142,-85 "/>
<path fill="none" stroke="#2e3436" stroke-width="1.5" d="M142,-85C148,-85 154,-91 154,-97"/>
<polyline fill="none" stroke="#2e3436" stroke-width="1.5" points="154,-97 154,-109 "/>
<path fill="none" stroke="#2e3436" stroke-width="1.5" d="M154,-109C154,-115 148,-121 142,-121"/>
<polyline fill="none" stroke="#2e3436" stroke-width="1.5" points="142,-121 106,-121 "/>
<path fill="none" stroke="#2e3436" stroke-width="1.5" d="M106,-121C100,-121 94,-115 94,-109"/>
<polyline fill="none" stroke="#2e3436" stroke-width="1.5" points="94,-109 94,-97 "/>
<path fill="none" stroke="#2e3436" stroke-width="1.5" d="M94,-97C94,-91 100,-85 106,-85"/>
<text text-anchor="middle" x="124" y="-109.8" font-family="FreeSans" font-size="8.00" fill="#1c2021">Node[100]</text>
<polyline fill="none" stroke="#2e3436" stroke-width="1.5" points="94,-103 154,-103 "/>
<text text-anchor="start" x="102" y="-91.8" font-family="FreeSans" font-size="8.00" fill="#1c2021">age = 1</text>
</g>
<!-- N101 -->
<g id="node5" class="node"><title>N101</title>
<polygon fill="#ffffff" stroke="#ffffff" stroke-width="1.5" points="195,-85 231,-85 243,-97 243,-109 231,-121 195,-121 183,-109 183,-97 195,-85"/>
<path fill="#ffffff" stroke="#ffffff" stroke-width="1.5" d="M231,-85C237,-85 243,-91 243,-97"/>
<path fill="#ffffff" stroke="#ffffff" stroke-width="1.5" d="M243,-109C243,-115 237,-121 231,-121"/>
<path fill="#ffffff" stroke="#ffffff" stroke-width="1.5" d="M195,-121C189,-121 183,-115 183,-109"/>
<path fill="#ffffff" stroke="#ffffff" stroke-width="1.5" d="M183,-97C183,-91 189,-85 195,-85"/>
<polyline fill="none" stroke="#2e3436" stroke-width="1.5" points="195,-85 231,-85 "/>
<path fill="none" stroke="#2e3436" stroke-width="1.5" d="M231,-85C237,-85 243,-91 243,-97"/>
<polyline fill="none" stroke="#2e3436" stroke-width="1.5" points="243,-97 243,-109 "/>
<path fill="none" stroke="#2e3436" stroke-width="1.5" d="M243,-109C243,-115 237,-121 231,-121"/>
<polyline fill="none" stroke="#2e3436" stroke-width="1.5" points="231,-121 195,-121 "/>
<path fill="none" stroke="#2e3436" stroke-width="1.5" d="M195,-121C189,-121 183,-115 183,-109"/>
<polyline fill="none" stroke="#2e3436" stroke-width="1.5" points="183,-109 183,-97 "/>
<path fill="none" stroke="#2e3436" stroke-width="1.5" d="M183,-97C183,-91 189,-85 195,-85"/>
<text text-anchor="middle" x="213" y="-109.8" font-family="FreeSans" font-size="8.00" fill="#1c2021">Node[101]</text>
<polyline fill="none" stroke="#2e3436" stroke-width="1.5" points="183,-103 243,-103 "/>
<text text-anchor="start" x="191" y="-91.8" font-family="FreeSans" font-size="8.00" fill="#1c2021">age = 1</text>
</g>
</g>
</svg>
