<?xml version="1.0" encoding="UTF-8" standalone="no"?>
<!DOCTYPE svg PUBLIC "-//W3C//DTD SVG 1.1//EN"
 "http://www.w3.org/Graphics/SVG/1.1/DTD/svg11.dtd">
<!-- Generated by graphviz version 2.26.3 (20100126.1600)
 -->
<!-- Title: g Pages: 1 -->
<svg width="209pt" height="130pt"
 viewBox="0.00 0.00 209.00 130.00" xmlns="http://www.w3.org/2000/svg" xmlns:xlink="http://www.w3.org/1999/xlink">
<g id="graph1" class="graph" transform="scale(1 1) rotate(0) translate(4 126)">
<title>g</title>
<polygon fill="white" stroke="white" points="-4,5 -4,-126 206,-126 206,5 -4,5"/>
<!-- N0 -->
<g id="node1" class="node"><title>N0</title>
<polygon fill="#ffffff" stroke="#ffffff" stroke-width="1.5" points="12,-85 42,-85 54,-97 54,-109 42,-121 12,-121 0,-109 0,-97 12,-85"/>
<path fill="#ffffff" stroke="#ffffff" stroke-width="1.5" d="M42,-85C48,-85 54,-91 54,-97"/>
<path fill="#ffffff" stroke="#ffffff" stroke-width="1.5" d="M54,-109C54,-115 48,-121 42,-121"/>
<path fill="#ffffff" stroke="#ffffff" stroke-width="1.5" d="M12,-121C6,-121 0,-115 0,-109"/>
<path fill="#ffffff" stroke="#ffffff" stroke-width="1.5" d="M0,-97C0,-91 6,-85 12,-85"/>
<polyline fill="none" stroke="#2e3436" stroke-width="1.5" points="12,-85 42,-85 "/>
<path fill="none" stroke="#2e3436" stroke-width="1.5" d="M42,-85C48,-85 54,-91 54,-97"/>
<polyline fill="none" stroke="#2e3436" stroke-width="1.5" points="54,-97 54,-109 "/>
<path fill="none" stroke="#2e3436" stroke-width="1.5" d="M54,-109C54,-115 48,-121 42,-121"/>
<polyline fill="none" stroke="#2e3436" stroke-width="1.5" points="42,-121 12,-121 "/>
<path fill="none" stroke="#2e3436" stroke-width="1.5" d="M12,-121C6,-121 0,-115 0,-109"/>
<polyline fill="none" stroke="#2e3436" stroke-width="1.5" points="0,-109 0,-97 "/>
<path fill="none" stroke="#2e3436" stroke-width="1.5" d="M0,-97C0,-91 6,-85 12,-85"/>
<text text-anchor="middle" x="27" y="-109.8" font-family="FreeSans" font-size="8.00" fill="#1c2021">Node[0]</text>
<polyline fill="none" stroke="#2e3436" stroke-width="1.5" points="0,-103 54,-103 "/>
<text text-anchor="middle" x="27" y="-91.8" font-family="FreeSans" font-size="8.00" fill="#1c2021"> </text>
</g>
<!-- N1 -->
<g id="node2" class="node"><title>N1</title>
<polygon fill="#ffffff" stroke="#ffffff" stroke-width="1.5" points="37.5,-1 86.5,-1 98.5,-13 98.5,-25 86.5,-37 37.5,-37 25.5,-25 25.5,-13 37.5,-1"/>
<path fill="#ffffff" stroke="#ffffff" stroke-width="1.5" d="M86.5,-1C92.5,-1 98.5,-7 98.5,-13"/>
<path fill="#ffffff" stroke="#ffffff" stroke-width="1.5" d="M98.5,-25C98.5,-31 92.5,-37 86.5,-37"/>
<path fill="#ffffff" stroke="#ffffff" stroke-width="1.5" d="M37.5,-37C31.5,-37 25.5,-31 25.5,-25"/>
<path fill="#ffffff" stroke="#ffffff" stroke-width="1.5" d="M25.5,-13C25.5,-7 31.5,-1 37.5,-1"/>
<polyline fill="none" stroke="#2e3436" stroke-width="1.5" points="37.5,-1 86.5,-1 "/>
<path fill="none" stroke="#2e3436" stroke-width="1.5" d="M86.5,-1C92.5,-1 98.5,-7 98.5,-13"/>
<polyline fill="none" stroke="#2e3436" stroke-width="1.5" points="98.5,-13 98.5,-25 "/>
<path fill="none" stroke="#2e3436" stroke-width="1.5" d="M98.5,-25C98.5,-31 92.5,-37 86.5,-37"/>
<polyline fill="none" stroke="#2e3436" stroke-width="1.5" points="86.5,-37 37.5,-37 "/>
<path fill="none" stroke="#2e3436" stroke-width="1.5" d="M37.5,-37C31.5,-37 25.5,-31 25.5,-25"/>
<polyline fill="none" stroke="#2e3436" stroke-width="1.5" points="25.5,-25 25.5,-13 "/>
<path fill="none" stroke="#2e3436" stroke-width="1.5" d="M25.5,-13C25.5,-7 31.5,-1 37.5,-1"/>
<text text-anchor="middle" x="62" y="-25.8" font-family="FreeSans" font-size="8.00" fill="#1c2021">Node[1]</text>
<polyline fill="none" stroke="#2e3436" stroke-width="1.5" points="25.5,-19 98.5,-19 "/>
<text text-anchor="start" x="33.5" y="-7.8" font-family="FreeSans" font-size="8.00" fill="#1c2021">name = &#39;you&#39;</text>
</g>
<!-- N2 -->
<g id="node3" class="node"><title>N2</title>
<polygon fill="#ffffff" stroke="#ffffff" stroke-width="1.5" points="139,-1 189,-1 201,-13 201,-25 189,-37 139,-37 127,-25 127,-13 139,-1"/>
<path fill="#ffffff" stroke="#ffffff" stroke-width="1.5" d="M189,-1C195,-1 201,-7 201,-13"/>
<path fill="#ffffff" stroke="#ffffff" stroke-width="1.5" d="M201,-25C201,-31 195,-37 189,-37"/>
<path fill="#ffffff" stroke="#ffffff" stroke-width="1.5" d="M139,-37C133,-37 127,-31 127,-25"/>
<path fill="#ffffff" stroke="#ffffff" stroke-width="1.5" d="M127,-13C127,-7 133,-1 139,-1"/>
<polyline fill="none" stroke="#2e3436" stroke-width="1.5" points="139,-1 189,-1 "/>
<path fill="none" stroke="#2e3436" stroke-width="1.5" d="M189,-1C195,-1 201,-7 201,-13"/>
<polyline fill="none" stroke="#2e3436" stroke-width="1.5" points="201,-13 201,-25 "/>
<path fill="none" stroke="#2e3436" stroke-width="1.5" d="M201,-25C201,-31 195,-37 189,-37"/>
<polyline fill="none" stroke="#2e3436" stroke-width="1.5" points="189,-37 139,-37 "/>
<path fill="none" stroke="#2e3436" stroke-width="1.5" d="M139,-37C133,-37 127,-31 127,-25"/>
<polyline fill="none" stroke="#2e3436" stroke-width="1.5" points="127,-25 127,-13 "/>
<path fill="none" stroke="#2e3436" stroke-width="1.5" d="M127,-13C127,-7 133,-1 139,-1"/>
<text text-anchor="middle" x="164" y="-25.8" font-family="FreeSans" font-size="8.00" fill="#1c2021">Node[2]</text>
<polyline fill="none" stroke="#2e3436" stroke-width="1.5" points="127,-19 201,-19 "/>
<text text-anchor="start" x="135" y="-7.8" font-family="FreeSans" font-size="8.00" fill="#1c2021">name = &#39;him&#39;</text>
</g>
<!-- N3 -->
<g id="node4" class="node"><title>N3</title>
<polygon fill="#ffffff" stroke="#ffffff" stroke-width="1.5" points="95,-85 131,-85 143,-97 143,-109 131,-121 95,-121 83,-109 83,-97 95,-85"/>
<path fill="#ffffff" stroke="#ffffff" stroke-width="1.5" d="M131,-85C137,-85 143,-91 143,-97"/>
<path fill="#ffffff" stroke="#ffffff" stroke-width="1.5" d="M143,-109C143,-115 137,-121 131,-121"/>
<path fill="#ffffff" stroke="#ffffff" stroke-width="1.5" d="M95,-121C89,-121 83,-115 83,-109"/>
<path fill="#ffffff" stroke="#ffffff" stroke-width="1.5" d="M83,-97C83,-91 89,-85 95,-85"/>
<polyline fill="none" stroke="#2e3436" stroke-width="1.5" points="95,-85 131,-85 "/>
<path fill="none" stroke="#2e3436" stroke-width="1.5" d="M131,-85C137,-85 143,-91 143,-97"/>
<polyline fill="none" stroke="#2e3436" stroke-width="1.5" points="143,-97 143,-109 "/>
<path fill="none" stroke="#2e3436" stroke-width="1.5" d="M143,-109C143,-115 137,-121 131,-121"/>
<polyline fill="none" stroke="#2e3436" stroke-width="1.5" points="131,-121 95,-121 "/>
<path fill="none" stroke="#2e3436" stroke-width="1.5" d="M95,-121C89,-121 83,-115 83,-109"/>
<polyline fill="none" stroke="#2e3436" stroke-width="1.5" points="83,-109 83,-97 "/>
<path fill="none" stroke="#2e3436" stroke-width="1.5" d="M83,-97C83,-91 89,-85 95,-85"/>
<text text-anchor="middle" x="113" y="-109.8" font-family="FreeSans" font-size="8.00" fill="#1c2021">Node[3]</text>
<polyline fill="none" stroke="#2e3436" stroke-width="1.5" points="83,-103 143,-103 "/>
<text text-anchor="start" x="91" y="-91.8" font-family="FreeSans" font-size="8.00" fill="#1c2021">name = &#39;I&#39;</text>
</g>
<!-- N3&#45;&gt;N1 -->
<g id="edge2" class="edge"><title>N3&#45;&gt;N1</title>
<path fill="none" stroke="#2e3436" stroke-width="2" d="M101.934,-84.7733C94.6491,-72.7751 85.0213,-56.9174 77.0444,-43.779"/>
<polygon fill="#2e3436" stroke="#2e3436" points="73.0446,-37.1912 79.8219,-41.8505 75.4182,-40.1371 77.3644,-43.3426 76.937,-43.6021 76.5096,-43.8616 74.5634,-40.6561 74.0521,-45.3537 73.0446,-37.1912 73.0446,-37.1912"/>
<text text-anchor="middle" x="100" y="-58.8" font-family="FreeSans" font-size="8.00" fill="#2e3436">know</text>
</g>
<!-- N3&#45;&gt;N2 -->
<g id="edge4" class="edge"><title>N3&#45;&gt;N2</title>
<path fill="none" stroke="#2e3436" stroke-width="2" d="M124.066,-84.7733C131.351,-72.7751 140.979,-56.9174 148.956,-43.779"/>
<polygon fill="#2e3436" stroke="#2e3436" points="152.955,-37.1912 151.948,-45.3537 151.437,-40.6561 149.49,-43.8616 149.063,-43.6021 148.636,-43.3426 150.582,-40.1371 146.178,-41.8505 152.955,-37.1912 152.955,-37.1912"/>
<text text-anchor="middle" x="151" y="-58.8" font-family="FreeSans" font-size="8.00" fill="#2e3436">know</text>
</g>
</g>
</svg>
